<svg xmlns="http://www.w3.org/2000/svg" xmlns:xlink="http://www.w3.org/1999/xlink" viewBox="0 0 145.65 146.96"><defs><style>.cls-1,.cls-10,.cls-13,.cls-8{fill:none;}.cls-1,.cls-3{opacity:0.8;}.cls-2{clip-path:url(#clip-path);}.cls-3{fill:#f5ad1f;}.cls-4{fill:#5d737b;}.cls-5{fill:#798c91;}.cls-6{fill:#87cdd3;opacity:0.5;}.cls-7{fill:#be1622;}.cls-8{stroke:#eaeaea;stroke-width:3.92px;}.cls-10,.cls-8{stroke-miterlimit:10;}.cls-11,.cls-9{fill:#fff;}.cls-10{stroke:#1d1d1b;}.cls-11{font-size:7px;font-family:MyriadPro-Bold, Myriad Pro;font-weight:700;}.cls-12{letter-spacing:0.01em;}.cls-13{stroke:#be1622;stroke-linecap:round;stroke-linejoin:round;stroke-dasharray:2.96 2.96;}</style><clipPath id="clip-path" transform="translate(-5.13 -5.13)"><circle class="cls-1" cx="77.95" cy="77.95" r="70.87"/></clipPath></defs><title>G04_14_04</title><g id="Mobile"><g class="cls-2"><circle class="cls-3" cx="72.83" cy="72.83" r="70.87"/><g id="_4" data-name="4"><polygon class="cls-4" points="60.07 62.94 59.06 51.31 45.73 51.88 46.73 63.51 60.07 62.94"/><polygon class="cls-4" points="66.92 143.35 65.92 131.72 52.58 132.28 53.58 143.91 66.92 143.35"/><path class="cls-5" d="M119.86,143.78,119.48,130a3.92,3.92,0,0,0-2.71-3.56l-6.57-2.31,1.72,19.64,4.54,2A2.38,2.38,0,0,0,119.86,143.78Z" transform="translate(-5.13 -5.13)"/><polygon class="cls-5" points="50.42 140.82 43.13 56.23 49.71 55.95 57.01 140.54 50.42 140.82"/><path class="cls-4" d="M83.86,135.2c-6-.81-10.73,10-10.73,10l-11,.47L54.84,61.08l8.63-.36a6.92,6.92,0,0,1,6.9,6.49l3.57,41.35,38,13.9a4.08,4.08,0,0,1,3,3.64l1.08,16a3.51,3.51,0,0,1-4.84,3.75C100.88,141.33,87.61,135.7,83.86,135.2Z" transform="translate(-5.13 -5.13)"/><path class="cls-5" d="M81.53,116.78l25.59,7.34a5.31,5.31,0,0,1,3.72,4.93l.19,5c.12,3.42-2.87,5.86-6,4.83-7.43-2.48-19.55-6.14-25.49-7.91A5.32,5.32,0,0,1,75.93,126l-.17-4.37A4.6,4.6,0,0,1,81.53,116.78Z" transform="translate(-5.13 -5.13)"/><path class="cls-4" d="M69.09,85c4.72-.56,10.71,2.17,15.29,3.61C96,92.31,95.88,108.89,96.75,119l-6.41-3.56c2-.09-.67-10.71-1.07-12.12C85.78,91.13,72.84,90.39,63.2,90.39,64.73,86.74,66.73,85.32,69.09,85Z" transform="translate(-5.13 -5.13)"/><path class="cls-4" d="M71,105.52s7.89-2.68,12.91-6.88a1.55,1.55,0,0,1,2.41,1.53c-.46,5.87-7.11,9.27-13.46,11.68C65.34,114.71,71,105.52,71,105.52Z" transform="translate(-5.13 -5.13)"/><path class="cls-5" d="M72.14,131.44l-1.86-21.55a4.07,4.07,0,0,0-4.23-3.72h0a4.06,4.06,0,0,0-3.88,4.42L64,132.14a4.08,4.08,0,0,0,4.23,3.72h0A4.08,4.08,0,0,0,72.14,131.44Z" transform="translate(-5.13 -5.13)"/><polygon class="cls-5" points="62.51 90.08 59.54 55.54 55.53 55.71 58.5 90.25 62.51 90.08"/></g><rect class="cls-6" x="29.4" y="27.2" width="89.2" height="119.77"/><rect class="cls-7" x="29.4" y="39.06" width="89.2" height="3.78"/><path class="cls-6" d="M34.52,152.09h0V54.77h0c5.95,0,10.78,14.83,10.78,20.77v55.77C45.3,137.26,40.47,152.09,34.52,152.09Z" transform="translate(-5.13 -5.13)"/><path class="cls-6" d="M123.72,54.77h0v67.3h0c-6,0-10.77-17.83-10.77-23.78V75.54C113,69.6,117.77,54.77,123.72,54.77Z" transform="translate(-5.13 -5.13)"/></g><circle class="cls-8" cx="72.83" cy="72.83" r="70.87"/><rect class="cls-7" x="44" y="78.29" width="65.48" height="42.8" rx="2.27" ry="2.27"/><rect class="cls-9" x="47.54" y="88.41" width="58.68" height="29.76" rx="2.27" ry="2.27"/><line class="cls-10" x1="50.09" y1="93.17" x2="102.67" y2="93.17"/><line class="cls-10" x1="50.09" y1="97.17" x2="102.67" y2="97.17"/><line class="cls-10" x1="50.09" y1="101.18" x2="102.67" y2="101.18"/><line class="cls-10" x1="50.09" y1="105.18" x2="102.67" y2="105.18"/><line class="cls-10" x1="50.09" y1="109.18" x2="102.67" y2="109.18"/><line class="cls-10" x1="50.09" y1="113.18" x2="102.67" y2="113.18"/><text class="cls-11" transform="translate(61.09 85.67)"><tspan class="cls-12">E</tspan><tspan x="3.79" y="0">VIDENCE</tspan></text><rect class="cls-13" x="23.32" y="35.71" width="101.29" height="10.17" rx="2.27" ry="2.27"/></g></svg>