<svg xmlns="http://www.w3.org/2000/svg" xmlns:xlink="http://www.w3.org/1999/xlink" viewBox="0 0 156.95 155.06"><defs><style>.cls-1,.cls-2,.cls-40{fill:none;}.cls-1,.cls-4{opacity:0.8;}.cls-3{clip-path:url(#clip-path);}.cls-4{fill:#f5ad1f;}.cls-5{clip-path:url(#clip-path-2);}.cls-6{font-size:12px;}.cls-23,.cls-6{fill:#1d1d1b;font-family:DJBMessyAmandaGoesBold, DJB Messy Amanda Goes Bold;}.cls-7{letter-spacing:0.02em;}.cls-8{letter-spacing:0.02em;}.cls-9{letter-spacing:0.04em;}.cls-10{letter-spacing:0.04em;}.cls-11{letter-spacing:0.09em;}.cls-12{letter-spacing:0.09em;}.cls-13{letter-spacing:0.11em;}.cls-14{letter-spacing:0.17em;}.cls-15{letter-spacing:0em;}.cls-16{letter-spacing:0.5em;}.cls-17{letter-spacing:0.16em;}.cls-18{letter-spacing:0.23em;}.cls-19{letter-spacing:-0.03em;}.cls-20{letter-spacing:0.16em;}.cls-21{letter-spacing:0.16em;}.cls-22{clip-path:url(#clip-path-3);}.cls-23{font-size:17px;}.cls-24{letter-spacing:0.07em;}.cls-25{letter-spacing:0em;}.cls-26{letter-spacing:0.07em;}.cls-27{letter-spacing:0.33em;}.cls-28{letter-spacing:0.48em;}.cls-29{letter-spacing:0.48em;}.cls-30{letter-spacing:0.1em;}.cls-31{letter-spacing:0.18em;}.cls-32{letter-spacing:0.33em;}.cls-33{letter-spacing:0.33em;}.cls-34{letter-spacing:0.16em;}.cls-35{letter-spacing:0.16em;}.cls-36{fill:#d1e1ea;opacity:0.5;}.cls-37{clip-path:url(#clip-path-4);}.cls-38{fill:#648098;}.cls-39{fill:#7899b6;}.cls-40{stroke:#eaeaea;stroke-miterlimit:10;stroke-width:3.92px;}</style><clipPath id="clip-path" transform="translate(-1.84 -5.13)"><circle class="cls-1" cx="77.95" cy="77.95" r="70.87"/></clipPath><clipPath id="clip-path-2" transform="translate(-1.84 -5.13)"><path class="cls-2" d="M78,7.09A70.87,70.87,0,1,0,148.82,78,70.85,70.85,0,0,0,78,7.09ZM56.69,108.71a32,32,0,1,1,32-31.95A32,32,0,0,1,56.69,108.71Z"/></clipPath><clipPath id="clip-path-3" transform="translate(-1.84 -5.13)"><circle class="cls-2" cx="56.5" cy="77.85" r="33.14"/></clipPath><clipPath id="clip-path-4" transform="translate(-1.84 -5.13)"><circle class="cls-2" cx="77.95" cy="77.95" r="70.87"/></clipPath></defs><title>G04_13_07</title><g id="Mobile"><g class="cls-3"><circle class="cls-4" cx="76.11" cy="72.83" r="70.87"/></g></g><g id="Houses"><g class="cls-5"><text class="cls-6" transform="translate(5.25 11.64)">Lorem<tspan class="cls-7" x="22.75" y="0"> </tspan><tspan x="25.93" y="0">ipsum</tspan><tspan class="cls-8" x="46.43" y="0"> </tspan><tspan x="49.61" y="0">dolor</tspan><tspan class="cls-7" x="68.94" y="0"> </tspan><tspan x="72.12" y="0">sit</tspan><tspan class="cls-8" x="81.21" y="0"> </tspan><tspan x="84.39" y="0">amet,</tspan><tspan class="cls-7" x="105.01" y="0"> </tspan><tspan x="108.19" y="0">consecte</tspan><tspan x="136.85" y="0">-</tspan><tspan x="0" y="14.4">tuer</tspan><tspan class="cls-9" x="15.18" y="14.4"> </tspan><tspan x="18.58" y="14.4">adipiscing</tspan><tspan class="cls-9" x="54.66" y="14.4"> </tspan><tspan x="58.07" y="14.4">elit,</tspan><tspan class="cls-10" x="71.86" y="14.4"> </tspan><tspan x="75.26" y="14.4">sed</tspan><tspan class="cls-9" x="86.87" y="14.4"> </tspan><tspan x="90.27" y="14.4">diam</tspan><tspan class="cls-9" x="108.99" y="14.4"> </tspan><tspan x="112.39" y="14.4">nonum</tspan><tspan x="136.85" y="14.4">-</tspan><tspan x="0" y="28.8">my</tspan><tspan class="cls-11" x="11.21" y="28.8"> </tspan><tspan x="15.26" y="28.8">nibh</tspan><tspan class="cls-11" x="30.56" y="28.8"> </tspan><tspan x="34.61" y="28.8">euismod</tspan><tspan class="cls-12" x="63.17" y="28.8"> </tspan><tspan x="67.21" y="28.8">tincidunt</tspan><tspan class="cls-11" x="100.87" y="28.8"> </tspan><tspan x="104.92" y="28.8">ut</tspan><tspan class="cls-11" x="112.57" y="28.8"> </tspan><tspan x="116.62" y="28.8">laoreet </tspan><tspan x="0" y="43.2">dolore</tspan><tspan class="cls-13" x="22.52" y="43.2"> </tspan><tspan x="26.86" y="43.2">magna</tspan><tspan class="cls-13" x="52.09" y="43.2"> </tspan><tspan x="56.43" y="43.2">aliquam</tspan><tspan class="cls-13" x="85.4" y="43.2"> </tspan><tspan x="89.74" y="43.2">erat</tspan><tspan class="cls-13" x="105.44" y="43.2"> </tspan><tspan x="109.78" y="43.2">volutpat. </tspan><tspan x="0" y="57.6">Ut</tspan><tspan class="cls-14" x="7.83" y="57.6"> </tspan><tspan x="12.8" y="57.6">wisi</tspan><tspan class="cls-14" x="25.93" y="57.6"> </tspan><tspan x="30.91" y="57.6">enim</tspan><tspan class="cls-14" x="47.96" y="57.6"> </tspan><tspan x="52.94" y="57.6">ad</tspan><tspan class="cls-14" x="62.65" y="57.6"> </tspan><tspan x="67.63" y="57.6">minim</tspan><tspan class="cls-14" x="90.49" y="57.6"> </tspan><tspan x="95.47" y="57.6">veniam,</tspan><tspan class="cls-14" x="123.04" y="57.6"> </tspan><tspan x="128.02" y="57.6">quis </tspan><tspan x="0" y="72">no</tspan><tspan class="cls-15" x="8.63" y="72">s</tspan><tspan x="11.99" y="72">trud</tspan><tspan class="cls-16" x="28.99" y="72"> </tspan><tspan x="37.91" y="72">exerci</tspan><tspan class="cls-16" x="57.9" y="72"> </tspan><tspan x="66.82" y="72">tation</tspan><tspan class="cls-16" x="89.29" y="72"> </tspan><tspan x="98.21" y="72">ullamcorper </tspan><tspan x="0" y="86.4">suscipit</tspan><tspan class="cls-17" x="26.19" y="86.4"> </tspan><tspan x="31.12" y="86.4">lobortis</tspan><tspan class="cls-17" x="58.13" y="86.4"> </tspan><tspan x="63.05" y="86.4">nisl</tspan><tspan class="cls-17" x="76" y="86.4"> </tspan><tspan x="80.93" y="86.4">ut</tspan><tspan class="cls-17" x="88.58" y="86.4"> </tspan><tspan x="93.51" y="86.4">aliquip</tspan><tspan class="cls-17" x="117.1" y="86.4"> </tspan><tspan x="122.03" y="86.4">ex</tspan><tspan class="cls-17" x="128.91" y="86.4"> </tspan><tspan x="133.83" y="86.4">ea </tspan><tspan x="0" y="100.8">commodo</tspan><tspan class="cls-18" x="33.26" y="100.8"> </tspan><tspan x="38.99" y="100.8">consequat.</tspan><tspan class="cls-18" x="76.52" y="100.8"> </tspan><tspan x="82.25" y="100.8">Duis</tspan><tspan class="cls-18" x="98.93" y="100.8"> </tspan><tspan x="104.66" y="100.8">autem</tspan><tspan class="cls-18" x="127" y="100.8"> </tspan><tspan x="132.73" y="100.8">vel </tspan><tspan x="0" y="115.2">eum</tspan><tspan class="cls-19" x="14.17" y="115.2"> </tspan><tspan x="16.74" y="115.2">iriure</tspan><tspan class="cls-19" x="37.2" y="115.2"> </tspan><tspan x="39.77" y="115.2">dolor</tspan><tspan class="cls-19" x="59.1" y="115.2"> </tspan><tspan x="61.67" y="115.2">in</tspan><tspan class="cls-19" x="68.74" y="115.2"> </tspan><tspan x="71.32" y="115.2">hendrerit</tspan><tspan class="cls-19" x="106.54" y="115.2"> </tspan><tspan x="109.12" y="115.2">in</tspan><tspan class="cls-19" x="116.19" y="115.2"> </tspan><tspan x="118.76" y="115.2">vulpu</tspan><tspan x="136.85" y="115.2">-</tspan><tspan x="0" y="129.6">tate</tspan><tspan class="cls-20" x="14.84" y="129.6"> </tspan><tspan x="19.68" y="129.6">velit</tspan><tspan class="cls-20" x="34.36" y="129.6"> </tspan><tspan x="39.2" y="129.6">esse</tspan><tspan class="cls-21" x="52.41" y="129.6"> </tspan><tspan x="57.25" y="129.6">mole</tspan><tspan class="cls-15" x="73.46" y="129.6">s</tspan><tspan x="76.83" y="129.6">tie</tspan><tspan class="cls-20" x="85.7" y="129.6"> </tspan><tspan x="90.54" y="129.6">consequat,</tspan><tspan class="cls-20" x="127.89" y="129.6"> </tspan><tspan x="132.73" y="129.6">vel </tspan></text></g></g><g id="Workers"><g class="cls-22"><text class="cls-23" transform="translate(0.22 14.95)">Lorem<tspan class="cls-24" x="32.22" y="0"> </tspan><tspan class="cls-25" x="37.67" y="0">ipsum</tspan><tspan class="cls-26" x="66.72" y="0"> </tspan><tspan x="72.16" y="0">dolor</tspan><tspan class="cls-26" x="99.54" y="0"> </tspan><tspan x="104.98" y="0">sit</tspan><tspan class="cls-26" x="117.85" y="0"> </tspan><tspan x="123.29" y="0">amet, </tspan><tspan x="0" y="20.4">consectetuer</tspan><tspan class="cls-27" x="62.11" y="20.4"> </tspan><tspan class="cls-25" x="71.97" y="20.4">adipiscing</tspan><tspan class="cls-27" x="123.1" y="20.4"> </tspan><tspan x="132.96" y="20.4">elit, </tspan><tspan x="0" y="40.8">sed</tspan><tspan class="cls-28" x="16.45" y="40.8"> </tspan><tspan x="28.89" y="40.8">diam</tspan><tspan class="cls-29" x="55.41" y="40.8"> </tspan><tspan x="67.85" y="40.8">nonummy</tspan><tspan class="cls-28" x="118.38" y="40.8"> </tspan><tspan x="130.82" y="40.8">nibh </tspan><tspan x="0" y="61.2">euismod</tspan><tspan class="cls-30" x="40.46" y="61.2"> </tspan><tspan x="46.44" y="61.2">tincidunt</tspan><tspan class="cls-30" x="94.13" y="61.2"> </tspan><tspan x="100.11" y="61.2">ut</tspan><tspan class="cls-30" x="110.95" y="61.2"> </tspan><tspan x="116.93" y="61.2">laoreet </tspan><tspan x="0" y="81.6">dolore</tspan><tspan class="cls-31" x="31.9" y="81.6"> </tspan><tspan x="39.09" y="81.6">magna</tspan><tspan class="cls-31" x="74.84" y="81.6"> </tspan><tspan x="82.04" y="81.6">aliquam</tspan><tspan class="cls-31" x="123.07" y="81.6"> </tspan><tspan x="130.27" y="81.6">erat </tspan><tspan x="0" y="102">volutpat.</tspan><tspan class="cls-32" x="45.26" y="102"> </tspan><tspan x="55.17" y="102">Ut</tspan><tspan class="cls-33" x="66.26" y="102"> </tspan><tspan x="76.17" y="102">wisi</tspan><tspan class="cls-33" x="94.76" y="102"> </tspan><tspan class="cls-25" x="104.67" y="102">enim</tspan><tspan class="cls-33" x="128.83" y="102"> </tspan><tspan x="138.74" y="102">ad </tspan><tspan x="0" y="122.4">minim</tspan><tspan class="cls-34" x="32.39" y="122.4"> </tspan><tspan x="39.24" y="122.4">veniam,</tspan><tspan class="cls-35" x="78.3" y="122.4"> </tspan><tspan x="85.15" y="122.4">quis</tspan><tspan class="cls-34" x="104.59" y="122.4"> </tspan><tspan x="111.44" y="122.4">no</tspan><tspan class="cls-15" x="123.66" y="122.4">s</tspan><tspan x="128.43" y="122.4">trud </tspan></text></g></g><g id="Official_sources" data-name="Official sources"><circle class="cls-36" cx="54.85" cy="71.64" r="31.66"/><g class="cls-37"><path class="cls-38" d="M86.36,71.47a27.23,27.23,0,0,0-.69-2.8A27.23,27.23,0,0,1,86.36,71.47Z" transform="translate(-1.84 -5.13)"/><path class="cls-38" d="M86.92,77.24c0-1,0-1.94-.14-2.9C86.87,75.3,86.92,76.27,86.92,77.24Z" transform="translate(-1.84 -5.13)"/><path class="cls-38" d="M84.71,88.55c.23-.56.44-1.12.63-1.69C85.15,87.43,84.94,88,84.71,88.55Z" transform="translate(-1.84 -5.13)"/><path class="cls-38" d="M81.06,95.07a29.75,29.75,0,0,1-1.9,2.33A29.75,29.75,0,0,0,81.06,95.07Z" transform="translate(-1.84 -5.13)"/><path class="cls-38" d="M91.9,77.24c0-1.13-.06-2.26-.16-3.38.1,1.12.16,2.25.16,3.38Z" transform="translate(-1.84 -5.13)"/><path class="cls-38" d="M86.92,77.24c0,.52,0,1,0,1.56C86.9,78.28,86.92,77.76,86.92,77.24Z" transform="translate(-1.84 -5.13)"/><path class="cls-38" d="M70,109.71a35,35,0,0,1-8.11,2.21A35,35,0,0,0,70,109.71Z" transform="translate(-1.84 -5.13)"/><path class="cls-38" d="M43.67,109.71h0a35,35,0,0,0,13.18,2.57,35,35,0,0,1-13.18-2.57Z" transform="translate(-1.84 -5.13)"/><path class="cls-38" d="M76.22,106.46c-1,.64-2,1.23-3,1.78C74.25,107.69,75.25,107.1,76.22,106.46Z" transform="translate(-1.84 -5.13)"/><path class="cls-38" d="M46.91,105.61c.91.32,1.84.59,2.77.82C48.75,106.2,47.82,105.93,46.91,105.61Z" transform="translate(-1.84 -5.13)"/><path class="cls-38" d="M81.64,52.47,78.11,56a30.05,30.05,0,1,1-42.5,42.5L32.09,102c.56.56,1.07,1.17,1.66,1.69a34.58,34.58,0,0,0,9.93,6,35,35,0,0,0,38-57.24" transform="translate(-1.84 -5.13)"/><path class="cls-39" d="M29,88.55A30.06,30.06,0,0,1,82.72,61.91,30,30,0,0,0,78.11,56l3.53-3.52A35,35,0,1,0,32.09,102l3.52-3.53A29.8,29.8,0,0,1,29,88.55Z" transform="translate(-1.84 -5.13)"/></g></g><g id="Marine"><circle class="cls-40" cx="76.11" cy="72.83" r="70.87"/></g></svg>