<svg xmlns="http://www.w3.org/2000/svg" viewBox="0 0 145.73 145.73"><defs><style>.a{fill:#f5ad20;}.b{fill:#f4c4a4;}.c,.l{fill:#5b5b5a;}.c{opacity:0.2;}.d{fill:#f8ac1a;}.e{fill:#fff;}.f{fill:#bdbcbc;}.g{fill:#e0e0e0;}.h{fill:#9a9b9c;}.i,.m,.o,.q{fill:none;}.i{stroke:#4e7a92;}.i,.m,.q{stroke-miterlimit:10;}.i,.m{stroke-width:2px;}.j{fill:#626261;}.k{fill:#fcd6b7;}.m{stroke:#f5ad1f;}.n{fill:#3c3c3b;opacity:0.4;}.p{fill:#4e7a92;}.q{stroke:#eaeaea;stroke-width:4px;}</style></defs><title>G04_03</title><circle class="a" cx="72.87" cy="72.87" r="70.87"/><path class="b" d="M68.63,90.77l-.38-2.69A1.32,1.32,0,0,0,66.74,87l-.57-3.91a1.36,1.36,0,0,0-1.54-1.16l-.19,0-.5-3.51a2.21,2.21,0,0,0-2.51-1.87l-11.09,1.6a1.87,1.87,0,0,0-.59.2l-10,5.38L39,86.11l16.69,12.6A1.91,1.91,0,0,1,57,97.76l8.06-1.17a2.62,2.62,0,0,0,2.22-2.91l-.12-.91a.46.46,0,0,1,.37-.51A1.31,1.31,0,0,0,68.63,90.77Z" transform="translate(-5.09 -5.09)"/><path class="c" d="M115,107.73a1.39,1.39,0,0,1-.35-.41,1.28,1.28,0,0,1-.14-.37L113,99.64l-.5-2.3a2.65,2.65,0,0,0-1-1.58l-2.08-1.58V53.73a2.56,2.56,0,0,0-2.57-2.56H95.73v-.74a1,1,0,0,0-1-1H89.58v-.41a5,5,0,0,0-10.08,0v.41H74.32a1,1,0,0,0-1,1v.74H62.27a2.56,2.56,0,0,0-2.57,2.56v39l-.7.1a1.72,1.72,0,0,0-.54.18l-9.1,4.87-2.94,1.58a1.6,1.6,0,0,0-.83,1.11l-2.85,14.21a1.4,1.4,0,0,0,0,.54l1.87,10.19L44.23,128l-2.59-.46-.79,4.51-.63-.1-.89,4,4.8,3.11,7,3.83,5.94,1.42,1.18-9.2L57,134.9l.8-4.5-1.94-.34c1.25-1.72,1.77-2.27,2.42-3.3a27.27,27.27,0,0,0,3.45-7.64l.61-2.29H98.74l.88,3.46-2.09.46,3.15,23.57,20.79-11.94ZM86.27,48.17v.68H82.81v-.68a1.72,1.72,0,0,1,1.73-1.73,1.68,1.68,0,0,1,1.22.51A1.72,1.72,0,0,1,86.27,48.17Z" transform="translate(-5.09 -5.09)"/><rect class="d" x="42.54" y="15.52" width="65.85" height="87.05" rx="3.4"/><rect class="e" x="45.49" y="18.92" width="59.95" height="80.25"/><path class="f" d="M87.23,17.81a6.68,6.68,0,0,0-13.36,0v2.8H87.23v-2.8Zm-9-1.18a2.29,2.29,0,1,1,4.58,0v.91H78.26Z" transform="translate(-5.09 -5.09)"/><rect class="f" x="73.18" y="12.46" width="4.58" height="0.23"/><path class="g" d="M87.23,17.81a6.68,6.68,0,0,0-13.36,0V18a6.68,6.68,0,0,1,13.36,0v-.23Z" transform="translate(-5.09 -5.09)"/><path class="h" d="M87.23,18v2.65H73.87v-2.8H87.23Z" transform="translate(-5.09 -5.09)"/><rect class="f" x="60.63" y="13.26" width="29.68" height="8.93" rx="3.72"/><path class="g" d="M94.11,18.34H67a1.29,1.29,0,0,0-1.29,1.29v.23A1.28,1.28,0,0,1,67,18.58H94.11a1.28,1.28,0,0,1,1.28,1.28v-.23A1.28,1.28,0,0,0,94.11,18.34Z" transform="translate(-5.09 -5.09)"/><path class="h" d="M94.11,25.67H67a1.28,1.28,0,0,1-1.29-1.28V26A1.28,1.28,0,0,0,67,27.27H94.11A1.28,1.28,0,0,0,95.39,26v-1.6A1.28,1.28,0,0,1,94.11,25.67Z" transform="translate(-5.09 -5.09)"/><path class="g" d="M92.53,20.62h-24a.34.34,0,0,1-.33-.34h0a.33.33,0,0,1,.33-.33h24a.34.34,0,0,1,.34.33h0A.34.34,0,0,1,92.53,20.62Z" transform="translate(-5.09 -5.09)"/><path class="g" d="M92.53,22.65h-24a.33.33,0,0,1-.33-.33h0a.34.34,0,0,1,.33-.34h24a.34.34,0,0,1,.34.34h0A.34.34,0,0,1,92.53,22.65Z" transform="translate(-5.09 -5.09)"/><path class="g" d="M92.53,24.68h-24a.33.33,0,0,1-.33-.33h0a.33.33,0,0,1,.33-.33h24a.34.34,0,0,1,.34.33h0A.34.34,0,0,1,92.53,24.68Z" transform="translate(-5.09 -5.09)"/><rect class="h" x="63.15" y="14.58" width="24.63" height="0.67" rx="0.28"/><path class="h" d="M92.53,22.37h-24a.33.33,0,0,1-.33-.33h0a.34.34,0,0,1,.33-.34h24a.34.34,0,0,1,.34.34h0A.34.34,0,0,1,92.53,22.37Z" transform="translate(-5.09 -5.09)"/><path class="h" d="M92.53,24.4h-24a.33.33,0,0,1-.33-.33h0a.34.34,0,0,1,.33-.34h24a.34.34,0,0,1,.34.34h0A.34.34,0,0,1,92.53,24.4Z" transform="translate(-5.09 -5.09)"/><line class="i" x1="88.13" y1="36.31" x2="75.63" y2="36.31"/><line class="i" x1="81.54" y1="44.31" x2="75.78" y2="44.31"/><line class="i" x1="96.13" y1="44.31" x2="83.63" y2="44.31"/><line class="i" x1="99.97" y1="44.31" x2="97.58" y2="44.31"/><line class="i" x1="83.52" y1="51.7" x2="75.78" y2="51.7"/><line class="i" x1="93.84" y1="51.7" x2="85.54" y2="51.7"/><line class="i" x1="78.54" y1="58.31" x2="75.78" y2="58.31"/><line class="i" x1="93.13" y1="58.31" x2="80.63" y2="58.31"/><line class="i" x1="99.97" y1="58.31" x2="94.58" y2="58.31"/><line class="i" x1="77.44" y1="65.62" x2="75.7" y2="65.62"/><path class="j" d="M71.61,32.19v2.28h-1.1V28.78h1.7a1.92,1.92,0,0,1,1.33.44A1.58,1.58,0,0,1,74,30.46a1.38,1.38,0,0,1-.8,1.28,1,1,0,0,1,.64.49,1.71,1.71,0,0,1,.2.86v.41a2.92,2.92,0,0,0,.05.5.63.63,0,0,0,.2.38v.09H73.18a.71.71,0,0,1-.18-.41,5.44,5.44,0,0,1,0-.57V33.1a1.12,1.12,0,0,0-.18-.68.61.61,0,0,0-.52-.23Zm0-.86h.59a.68.68,0,0,0,.54-.22.9.9,0,0,0,.19-.6.93.93,0,0,0-.19-.63.63.63,0,0,0-.53-.24h-.6Z" transform="translate(-5.09 -5.09)"/><path class="j" d="M76.47,34.55a1.56,1.56,0,0,1-1.3-.58,2.31,2.31,0,0,1-.46-1.49v-.16a2.6,2.6,0,0,1,.44-1.56,1.47,1.47,0,0,1,1.25-.6,1.35,1.35,0,0,1,1.14.51,2.19,2.19,0,0,1,.4,1.39v.61H75.81a1.51,1.51,0,0,0,.21.74.64.64,0,0,0,.57.28,1.68,1.68,0,0,0,.55-.08,2.15,2.15,0,0,0,.48-.24l.28.69a1.85,1.85,0,0,1-.61.35A2.43,2.43,0,0,1,76.47,34.55ZM76.4,31a.43.43,0,0,0-.41.24,1.64,1.64,0,0,0-.17.67h1v-.1a1.38,1.38,0,0,0-.1-.6A.37.37,0,0,0,76.4,31Z" transform="translate(-5.09 -5.09)"/><path class="j" d="M81.86,32.46A2.76,2.76,0,0,1,81.49,34a1.19,1.19,0,0,1-1,.57,1,1,0,0,1-.47-.11,1.06,1.06,0,0,1-.36-.31v2h-1.1V30.24h1l0,.43a1.34,1.34,0,0,1,.37-.38,1,1,0,0,1,.5-.13,1.19,1.19,0,0,1,1.06.61,3,3,0,0,1,.37,1.61Zm-1.1-.08a2.65,2.65,0,0,0-.15-1,.49.49,0,0,0-.46-.37.55.55,0,0,0-.32.09.64.64,0,0,0-.22.27v2a.49.49,0,0,0,.22.23.66.66,0,0,0,.32.08.49.49,0,0,0,.47-.33,2.39,2.39,0,0,0,.14-.9Z" transform="translate(-5.09 -5.09)"/><path class="j" d="M82.31,32.31a2.52,2.52,0,0,1,.45-1.55,1.52,1.52,0,0,1,1.28-.6,1.54,1.54,0,0,1,1.29.6,2.53,2.53,0,0,1,.46,1.55v.09A2.48,2.48,0,0,1,85.33,34a1.67,1.67,0,0,1-2.56,0,2.47,2.47,0,0,1-.46-1.56Zm1.1.09a2.62,2.62,0,0,0,.14.94.52.52,0,0,0,.5.35.51.51,0,0,0,.49-.35,2.42,2.42,0,0,0,.14-.94v-.09a2.43,2.43,0,0,0-.14-.93.53.53,0,0,0-1,0,2.68,2.68,0,0,0-.14.93Z" transform="translate(-5.09 -5.09)"/><path class="j" d="M88.35,31.19H88a.46.46,0,0,0-.31.1.69.69,0,0,0-.19.27v2.92h-1.1V30.24h1l0,.6a1.34,1.34,0,0,1,.31-.5.64.64,0,0,1,.44-.18l.14,0,.13,0Z" transform="translate(-5.09 -5.09)"/><path class="j" d="M90.23,29.19v1h.57V31h-.57v2.15a.61.61,0,0,0,.08.38.23.23,0,0,0,.21.11h.13l.12,0,.09.81a1.11,1.11,0,0,1-.3.08,1.51,1.51,0,0,1-.32,0,1,1,0,0,1-.83-.33,1.55,1.55,0,0,1-.28-1V31h-.52v-.79h.52v-1Z" transform="translate(-5.09 -5.09)"/><path class="j" d="M51.8,43.42V40.58h.88a.93.93,0,0,1,.73.33,1.22,1.22,0,0,1,.29.85v.47a1.23,1.23,0,0,1-.29.86.93.93,0,0,1-.73.33ZM52.35,41v2h.33a.39.39,0,0,0,.34-.21,1,1,0,0,0,.13-.55v-.47a1,1,0,0,0-.13-.54.39.39,0,0,0-.34-.21Z" transform="translate(-5.09 -5.09)"/><path class="j" d="M55.11,43.42a.88.88,0,0,1,0-.15.51.51,0,0,1,0-.17.73.73,0,0,1-.19.26.39.39,0,0,1-.28.1.57.57,0,0,1-.44-.17.63.63,0,0,1-.16-.46.57.57,0,0,1,.21-.48.89.89,0,0,1,.61-.17H55V42a.43.43,0,0,0-.06-.24.2.2,0,0,0-.18-.09.21.21,0,0,0-.15.07.37.37,0,0,0-.05.2h-.53v0a.54.54,0,0,1,.21-.46.8.8,0,0,1,.57-.19.76.76,0,0,1,.54.19.71.71,0,0,1,.21.55v.86a2.3,2.3,0,0,0,0,.28,1.34,1.34,0,0,0,.07.27Zm-.41-.37a.32.32,0,0,0,.32-.23v-.33h-.24a.25.25,0,0,0-.21.09.41.41,0,0,0-.06.23.29.29,0,0,0,.05.17A.17.17,0,0,0,54.7,43.05Z" transform="translate(-5.09 -5.09)"/><path class="j" d="M56.57,40.78v.53h.29v.39h-.29v1.08a.32.32,0,0,0,0,.19.12.12,0,0,0,.1.05h.07l.06,0,0,.41-.14,0h-.17a.51.51,0,0,1-.41-.16.83.83,0,0,1-.14-.52V41.7h-.26v-.39H56v-.53Z" transform="translate(-5.09 -5.09)"/><path class="j" d="M58,43.46a.8.8,0,0,1-.65-.29,1.17,1.17,0,0,1-.23-.74v-.08a1.27,1.27,0,0,1,.23-.78.71.71,0,0,1,.62-.3.67.67,0,0,1,.57.25,1.14,1.14,0,0,1,.2.7v.3H57.64a.74.74,0,0,0,.11.37A.31.31,0,0,0,58,43a.7.7,0,0,0,.27,0,.89.89,0,0,0,.24-.12l.14.35a1,1,0,0,1-.3.17A1.16,1.16,0,0,1,58,43.46Zm0-1.76a.24.24,0,0,0-.21.12.89.89,0,0,0-.08.34h.52v0a.78.78,0,0,0-.05-.3A.2.2,0,0,0,57.94,41.7Z" transform="translate(-5.09 -5.09)"/><path class="j" d="M53.05,49.68a.46.46,0,0,0-.08-.27,1,1,0,0,0-.32-.19,1.85,1.85,0,0,1-.65-.35.68.68,0,0,1-.22-.55.72.72,0,0,1,.25-.57,1,1,0,0,1,.64-.21.93.93,0,0,1,.67.23.81.81,0,0,1,.24.63H53a.45.45,0,0,0-.1-.33.34.34,0,0,0-.28-.12.31.31,0,0,0-.25.11.4.4,0,0,0-.08.26.29.29,0,0,0,.1.23,1,1,0,0,0,.34.21,1.58,1.58,0,0,1,.62.35.73.73,0,0,1,.21.56.72.72,0,0,1-.24.57,1,1,0,0,1-.66.21,1.08,1.08,0,0,1-.69-.22.78.78,0,0,1-.28-.69h.54a.56.56,0,0,0,.11.38.41.41,0,0,0,.32.12.31.31,0,0,0,.26-.1A.36.36,0,0,0,53.05,49.68Z" transform="translate(-5.09 -5.09)"/><path class="j" d="M55,50.12a.75.75,0,0,1-.21.25.55.55,0,0,1-.75-.14,1.29,1.29,0,0,1-.16-.7V48.31h.55v1.22a.87.87,0,0,0,.06.39.18.18,0,0,0,.17.11.31.31,0,0,0,.17,0,.29.29,0,0,0,.12-.1V48.31h.56v2.11h-.45Z" transform="translate(-5.09 -5.09)"/><path class="j" d="M57.57,49.42a1.4,1.4,0,0,1-.18.76.59.59,0,0,1-.53.28.44.44,0,0,1-.26-.07.67.67,0,0,1-.2-.21l0,.24h-.47V47.37h.55v1.12a.55.55,0,0,1,.18-.16.48.48,0,0,1,.24-.06.58.58,0,0,1,.53.3,1.55,1.55,0,0,1,.18.8ZM57,49.37a1.3,1.3,0,0,0-.07-.49.23.23,0,0,0-.23-.18.31.31,0,0,0-.17,0,.4.4,0,0,0-.11.14v1a.43.43,0,0,0,.11.12.31.31,0,0,0,.17,0,.23.23,0,0,0,.24-.16,1.28,1.28,0,0,0,.06-.45Z" transform="translate(-5.09 -5.09)"/><path class="j" d="M58.45,48.31v2.18a.86.86,0,0,1-.18.58.6.6,0,0,1-.49.2h-.12l-.13,0,0-.43.08,0h.08a.15.15,0,0,0,.14-.09.57.57,0,0,0,0-.26V48.31Zm0-.52h-.55v-.42h.55Z" transform="translate(-5.09 -5.09)"/><path class="j" d="M59.63,50.46a.79.79,0,0,1-.65-.29,1.11,1.11,0,0,1-.23-.74v-.08a1.26,1.26,0,0,1,.22-.78.74.74,0,0,1,.62-.3.7.7,0,0,1,.58.25,1.14,1.14,0,0,1,.19.7v.3H59.3a.74.74,0,0,0,.1.37.32.32,0,0,0,.29.14A.79.79,0,0,0,60,50a.73.73,0,0,0,.23-.12l.15.35a1,1,0,0,1-.31.17A1.14,1.14,0,0,1,59.63,50.46Zm0-1.76a.21.21,0,0,0-.2.12.73.73,0,0,0-.09.34h.53v0a.61.61,0,0,0-.06-.3A.18.18,0,0,0,59.59,48.7Z" transform="translate(-5.09 -5.09)"/><path class="j" d="M61.43,50a.2.2,0,0,0,.17-.09.4.4,0,0,0,.06-.24h.51a.72.72,0,0,1-.74.75.75.75,0,0,1-.64-.3,1.23,1.23,0,0,1-.22-.77v0a1.23,1.23,0,0,1,.22-.77.74.74,0,0,1,.63-.3.69.69,0,0,1,.55.22.8.8,0,0,1,.2.59h-.51a.55.55,0,0,0-.06-.28.2.2,0,0,0-.18-.11.23.23,0,0,0-.23.17,1.23,1.23,0,0,0-.07.47v0a1.19,1.19,0,0,0,.07.47A.24.24,0,0,0,61.43,50Z" transform="translate(-5.09 -5.09)"/><path class="j" d="M63.09,47.78v.53h.29v.39h-.29v1.08a.32.32,0,0,0,0,.19.14.14,0,0,0,.11.05h.06l.06,0,0,.41-.15,0H63.1a.54.54,0,0,1-.42-.16.83.83,0,0,1-.14-.52V48.7h-.26v-.39h.26v-.53Z" transform="translate(-5.09 -5.09)"/><path class="j" d="M53.82,56.4a1.06,1.06,0,0,1-.29.78,1,1,0,0,1-.75.28,1,1,0,0,1-.75-.28,1.05,1.05,0,0,1-.28-.78v-.8a1.05,1.05,0,0,1,.28-.78,1,1,0,0,1,.75-.28,1,1,0,0,1,.75.28,1.06,1.06,0,0,1,.29.78Zm-.55-.8a.69.69,0,0,0-.13-.47.48.48,0,0,0-.72,0,.75.75,0,0,0-.13.47v.8a.75.75,0,0,0,.13.47.49.49,0,0,0,.72,0,.69.69,0,0,0,.13-.47Z" transform="translate(-5.09 -5.09)"/><path class="j" d="M54.29,57.42V55.7H54v-.39h.26v-.24a.74.74,0,0,1,.19-.55.7.7,0,0,1,.52-.19h.12l.15,0,0,.42-.08,0h-.09a.19.19,0,0,0-.16.07.39.39,0,0,0-.06.23v.24h.34v.39h-.34v1.72Z" transform="translate(-5.09 -5.09)"/><path class="j" d="M55.53,57.42V55.7h-.26v-.39h.26v-.15a.8.8,0,0,1,.22-.61.83.83,0,0,1,.62-.22l.27,0,.3.09-.07.44-.23-.07a.9.9,0,0,0-.24,0,.32.32,0,0,0-.24.09.41.41,0,0,0-.08.27v.15h.35v.39h-.35v1.72Zm1.67,0h-.56V55.31h.56Z" transform="translate(-5.09 -5.09)"/><path class="j" d="M58.37,57a.19.19,0,0,0,.17-.09.34.34,0,0,0,.07-.24h.5a.72.72,0,0,1-.74.75.75.75,0,0,1-.64-.3,1.23,1.23,0,0,1-.22-.77v0a1.23,1.23,0,0,1,.22-.77.74.74,0,0,1,.63-.3.69.69,0,0,1,.55.22.8.8,0,0,1,.2.59h-.5a.47.47,0,0,0-.07-.28.2.2,0,0,0-.18-.11.23.23,0,0,0-.23.17,1.23,1.23,0,0,0-.07.47v0a1.19,1.19,0,0,0,.07.47A.24.24,0,0,0,58.37,57Z" transform="translate(-5.09 -5.09)"/><path class="j" d="M60.2,57.46a.79.79,0,0,1-.65-.29,1.11,1.11,0,0,1-.23-.74v-.08a1.26,1.26,0,0,1,.22-.78.74.74,0,0,1,.62-.3.7.7,0,0,1,.58.25,1.14,1.14,0,0,1,.2.7v.3H59.87a.65.65,0,0,0,.11.37.29.29,0,0,0,.28.14.79.79,0,0,0,.28,0,.73.73,0,0,0,.23-.12l.15.35a1,1,0,0,1-.31.17A1.14,1.14,0,0,1,60.2,57.46Zm0-1.76a.21.21,0,0,0-.2.12.73.73,0,0,0-.09.34h.53v0a.61.61,0,0,0-.06-.3A.18.18,0,0,0,60.16,55.7Z" transform="translate(-5.09 -5.09)"/><path class="j" d="M62.2,55.78H62a.21.21,0,0,0-.16,0,.25.25,0,0,0-.09.13v1.46h-.55V55.31h.51l0,.3a.67.67,0,0,1,.16-.25.29.29,0,0,1,.22-.09h.07l.06,0Z" transform="translate(-5.09 -5.09)"/><path class="j" d="M53.06,63.8h-.71l-.16.62h-.58l.81-2.84H53l.81,2.84h-.58Zm-.6-.43H53l-.24-.9h0Z" transform="translate(-5.09 -5.09)"/><path class="j" d="M54.77,64a.2.2,0,0,0,.18-.09A.4.4,0,0,0,55,63.7h.5a.69.69,0,0,1-.2.54.82.82,0,0,1-1.18-.09,1.3,1.3,0,0,1-.22-.77v0a1.3,1.3,0,0,1,.22-.77.75.75,0,0,1,.64-.3.67.67,0,0,1,.54.22.76.76,0,0,1,.2.59H55a.55.55,0,0,0-.06-.28.2.2,0,0,0-.18-.11.24.24,0,0,0-.24.17,1.23,1.23,0,0,0-.07.47v0a1.19,1.19,0,0,0,.07.47A.24.24,0,0,0,54.77,64Z" transform="translate(-5.09 -5.09)"/><path class="j" d="M56.57,64a.2.2,0,0,0,.18-.09.4.4,0,0,0,.06-.24h.5a.69.69,0,0,1-.21.54.72.72,0,0,1-.53.21.75.75,0,0,1-.64-.3,1.23,1.23,0,0,1-.22-.77v0a1.23,1.23,0,0,1,.22-.77.75.75,0,0,1,.64-.3.67.67,0,0,1,.54.22.8.8,0,0,1,.2.59h-.5a.55.55,0,0,0-.06-.28.2.2,0,0,0-.18-.11.24.24,0,0,0-.24.17,1.23,1.23,0,0,0-.07.47v0a1.19,1.19,0,0,0,.07.47A.24.24,0,0,0,56.57,64Z" transform="translate(-5.09 -5.09)"/><path class="j" d="M57.52,63.34a1.26,1.26,0,0,1,.23-.77.75.75,0,0,1,.64-.3.76.76,0,0,1,.64.3,1.26,1.26,0,0,1,.23.77v0a1.24,1.24,0,0,1-.23.77.83.83,0,0,1-1.28,0,1.22,1.22,0,0,1-.23-.77Zm.55,0a1.26,1.26,0,0,0,.07.47.27.27,0,0,0,.25.17.25.25,0,0,0,.24-.17,1.24,1.24,0,0,0,.08-.47v0a1.15,1.15,0,0,0-.08-.46.24.24,0,0,0-.24-.18.25.25,0,0,0-.25.18,1.2,1.2,0,0,0-.07.46Z" transform="translate(-5.09 -5.09)"/><path class="j" d="M60.66,64.12a.75.75,0,0,1-.21.25.5.5,0,0,1-.29.09.53.53,0,0,1-.45-.23,1.2,1.2,0,0,1-.17-.7V62.31h.56v1.22a.91.91,0,0,0,0,.39.2.2,0,0,0,.18.11.27.27,0,0,0,.16,0,.41.41,0,0,0,.13-.1V62.31h.55v2.11h-.45Z" transform="translate(-5.09 -5.09)"/><path class="j" d="M62,62.31l0,.29a.74.74,0,0,1,.22-.24.53.53,0,0,1,.72.12,1.15,1.15,0,0,1,.15.66v1.28h-.55V63.14a.71.71,0,0,0-.06-.34.18.18,0,0,0-.17-.1.47.47,0,0,0-.17,0,.3.3,0,0,0-.12.13v1.55h-.55V62.31Z" transform="translate(-5.09 -5.09)"/><path class="j" d="M64.14,61.78v.53h.29v.39h-.29v1.08a.32.32,0,0,0,0,.19.14.14,0,0,0,.11,0h.06l.06,0,0,.41-.15,0h-.16a.54.54,0,0,1-.42-.16.83.83,0,0,1-.14-.52V62.7h-.26v-.39h.26v-.53Z" transform="translate(-5.09 -5.09)"/><path class="j" d="M53.06,70.8h-.71l-.16.62h-.58l.81-2.84H53l.81,2.84h-.58Zm-.6-.43H53l-.24-.9h0Z" transform="translate(-5.09 -5.09)"/><path class="j" d="M54.93,70.87a.2.2,0,0,0-.07-.16.94.94,0,0,0-.28-.16,1.32,1.32,0,0,1-.48-.27.52.52,0,0,1-.17-.39.56.56,0,0,1,.21-.44.81.81,0,0,1,.55-.18.79.79,0,0,1,.56.19.56.56,0,0,1,.2.47h-.53a.33.33,0,0,0-.06-.21.22.22,0,0,0-.18-.08.25.25,0,0,0-.16.06.2.2,0,0,0-.06.15.18.18,0,0,0,.06.15,1,1,0,0,0,.28.16,1.43,1.43,0,0,1,.5.27.54.54,0,0,1,.16.41.55.55,0,0,1-.21.44.94.94,0,0,1-.57.17.82.82,0,0,1-.59-.21.61.61,0,0,1-.2-.48h.5a.36.36,0,0,0,.09.25.28.28,0,0,0,.21.07.24.24,0,0,0,.18-.06A.19.19,0,0,0,54.93,70.87Z" transform="translate(-5.09 -5.09)"/><path class="j" d="M56.69,70.87a.21.21,0,0,0-.08-.16.85.85,0,0,0-.27-.16,1.47,1.47,0,0,1-.49-.27.51.51,0,0,1-.16-.39.56.56,0,0,1,.21-.44.77.77,0,0,1,.54-.18.8.8,0,0,1,.57.19.56.56,0,0,1,.2.47h-.53a.33.33,0,0,0-.06-.21.22.22,0,0,0-.18-.08.23.23,0,0,0-.16.06.18.18,0,0,0-.07.15.16.16,0,0,0,.07.15.88.88,0,0,0,.28.16,1.53,1.53,0,0,1,.5.27.58.58,0,0,1,.16.41.53.53,0,0,1-.22.44.9.9,0,0,1-.57.17.79.79,0,0,1-.58-.21.66.66,0,0,1-.21-.48h.51a.36.36,0,0,0,.08.25.31.31,0,0,0,.22.07.26.26,0,0,0,.18-.06A.19.19,0,0,0,56.69,70.87Z" transform="translate(-5.09 -5.09)"/><path class="j" d="M58.31,71.46a.8.8,0,0,1-.65-.29,1.17,1.17,0,0,1-.23-.74v-.08a1.33,1.33,0,0,1,.22-.78.74.74,0,0,1,.63-.3.67.67,0,0,1,.57.25,1.14,1.14,0,0,1,.2.7v.3H58a.74.74,0,0,0,.11.37.31.31,0,0,0,.29.14.7.7,0,0,0,.27,0,.89.89,0,0,0,.24-.12l.14.35a1,1,0,0,1-.3.17A1.16,1.16,0,0,1,58.31,71.46Zm0-1.76a.24.24,0,0,0-.21.12.89.89,0,0,0-.08.34h.52v0a.78.78,0,0,0,0-.3A.2.2,0,0,0,58.28,69.7Z" transform="translate(-5.09 -5.09)"/><path class="j" d="M60.27,70.87a.2.2,0,0,0-.07-.16.94.94,0,0,0-.28-.16,1.52,1.52,0,0,1-.48-.27.51.51,0,0,1-.16-.39.55.55,0,0,1,.2-.44.81.81,0,0,1,.55-.18.79.79,0,0,1,.56.19.56.56,0,0,1,.21.47h-.54a.33.33,0,0,0-.06-.21.21.21,0,0,0-.17-.08.25.25,0,0,0-.17.06.2.2,0,0,0-.06.15.18.18,0,0,0,.06.15,1.22,1.22,0,0,0,.28.16,1.43,1.43,0,0,1,.5.27.54.54,0,0,1,.16.41.55.55,0,0,1-.21.44.92.92,0,0,1-.57.17.78.78,0,0,1-.58-.21.59.59,0,0,1-.21-.48h.51a.36.36,0,0,0,.08.25.28.28,0,0,0,.21.07.24.24,0,0,0,.18-.06A.19.19,0,0,0,60.27,70.87Z" transform="translate(-5.09 -5.09)"/><path class="j" d="M62,70.87a.2.2,0,0,0-.07-.16.94.94,0,0,0-.28-.16,1.47,1.47,0,0,1-.49-.27.55.55,0,0,1-.16-.39.56.56,0,0,1,.21-.44.78.78,0,0,1,.54-.18.8.8,0,0,1,.57.19.56.56,0,0,1,.2.47H62a.33.33,0,0,0-.06-.21.22.22,0,0,0-.18-.08.23.23,0,0,0-.16.06.21.21,0,0,0-.07.15.18.18,0,0,0,.07.15,1,1,0,0,0,.28.16,1.53,1.53,0,0,1,.5.27.54.54,0,0,1,.16.41.53.53,0,0,1-.22.44.89.89,0,0,1-.56.17.8.8,0,0,1-.59-.21.61.61,0,0,1-.2-.48h.5a.36.36,0,0,0,.08.25.32.32,0,0,0,.22.07A.24.24,0,0,0,62,71,.19.19,0,0,0,62,70.87Z" transform="translate(-5.09 -5.09)"/><path class="j" d="M63.36,69.31l0,.27a.61.61,0,0,1,.22-.23.47.47,0,0,1,.29-.08.52.52,0,0,1,.29.08.62.62,0,0,1,.19.27.61.61,0,0,1,.21-.26.54.54,0,0,1,.31-.09.47.47,0,0,1,.42.22,1.25,1.25,0,0,1,.15.68v1.25h-.55V70.17a1,1,0,0,0,0-.37.21.21,0,0,0-.18-.1.3.3,0,0,0-.15,0,.4.4,0,0,0-.11.14.19.19,0,0,0,0,.08v1.45h-.55V70.17a.83.83,0,0,0-.06-.37.18.18,0,0,0-.17-.1.26.26,0,0,0-.15,0,.52.52,0,0,0-.1.11v1.57h-.55V69.31Z" transform="translate(-5.09 -5.09)"/><path class="j" d="M66.64,71.46a.8.8,0,0,1-.65-.29,1.17,1.17,0,0,1-.23-.74v-.08a1.27,1.27,0,0,1,.23-.78.71.71,0,0,1,.62-.3.67.67,0,0,1,.57.25,1.14,1.14,0,0,1,.2.7v.3H66.31a.74.74,0,0,0,.11.37.31.31,0,0,0,.29.14A.7.7,0,0,0,67,71a.89.89,0,0,0,.24-.12l.14.35a1,1,0,0,1-.3.17A1.16,1.16,0,0,1,66.64,71.46Zm0-1.76a.24.24,0,0,0-.21.12.89.89,0,0,0-.08.34h.52v0a.78.78,0,0,0,0-.3A.2.2,0,0,0,66.61,69.7Z" transform="translate(-5.09 -5.09)"/><path class="j" d="M68.17,69.31l0,.29a.64.64,0,0,1,.22-.24.5.5,0,0,1,.29-.09.49.49,0,0,1,.42.21,1.07,1.07,0,0,1,.16.66v1.28h-.55V70.14a.71.71,0,0,0-.06-.34.19.19,0,0,0-.18-.1.42.42,0,0,0-.16,0,.4.4,0,0,0-.13.13v1.55h-.55V69.31Z" transform="translate(-5.09 -5.09)"/><path class="j" d="M70.28,68.78v.53h.28v.39h-.28v1.08a.32.32,0,0,0,0,.19.12.12,0,0,0,.1,0h.07l.06,0,0,.41-.15,0h-.16a.51.51,0,0,1-.41-.16.77.77,0,0,1-.14-.52V69.7h-.26v-.39h.26v-.53Z" transform="translate(-5.09 -5.09)"/><path class="j" d="M71.69,70.34a1.2,1.2,0,0,1,.23-.77.75.75,0,0,1,.64-.3.77.77,0,0,1,.64.3,1.26,1.26,0,0,1,.23.77v0a1.24,1.24,0,0,1-.23.77.76.76,0,0,1-.64.3.75.75,0,0,1-.64-.3,1.22,1.22,0,0,1-.23-.77Zm.55,0a1.26,1.26,0,0,0,.07.47.26.26,0,0,0,.25.17.25.25,0,0,0,.24-.17,1.24,1.24,0,0,0,.08-.47v0a1.15,1.15,0,0,0-.08-.46.25.25,0,0,0-.24-.18.25.25,0,0,0-.25.18,1.2,1.2,0,0,0-.07.46Z" transform="translate(-5.09 -5.09)"/><path class="j" d="M73.85,71.42V69.7h-.26v-.39h.26v-.24a.74.74,0,0,1,.19-.55.7.7,0,0,1,.52-.19h.13l.14,0,0,.42-.08,0h-.09a.19.19,0,0,0-.16.07.39.39,0,0,0-.06.23v.24h.34v.39H74.4v1.72Z" transform="translate(-5.09 -5.09)"/><path class="j" d="M75.58,69.71H75v-.5h.55Zm0,1.71H75v-.49h.55Z" transform="translate(-5.09 -5.09)"/><path class="j" d="M51.69,78.84a1.41,1.41,0,0,1,.13-.64.66.66,0,0,1,.29-.35h0l0,.14a.68.68,0,0,0-.17.31,1.62,1.62,0,0,0-.08.54v0a1.66,1.66,0,0,0,.08.54.74.74,0,0,0,.17.31l0,.14h0a.7.7,0,0,1-.29-.35,1.41,1.41,0,0,1-.13-.64Z" transform="translate(-5.09 -5.09)"/><path class="j" d="M52.82,79.42a1027571250996.14,1027571250996.14,0,0,1,0-.16.3.3,0,0,1-.09.13.24.24,0,0,1-.14,0,.29.29,0,0,1-.22-.08.32.32,0,0,1-.08-.24.3.3,0,0,1,.1-.24.51.51,0,0,1,.3-.08h.13v-.09a.21.21,0,0,0,0-.12.1.1,0,0,0-.09,0,.11.11,0,0,0-.08,0,.15.15,0,0,0,0,.1h-.27a.26.26,0,0,1,.1-.23.44.44,0,0,1,.29-.1.41.41,0,0,1,.27.1.33.33,0,0,1,.1.27v.44a.66.66,0,0,0,0,.14l0,.13Zm-.2-.18a.18.18,0,0,0,.1,0,.24.24,0,0,0,.06-.08V79h-.13a.12.12,0,0,0-.1,0,.2.2,0,0,0,0,.11.12.12,0,0,0,0,.09A.1.1,0,0,0,52.62,79.24Z" transform="translate(-5.09 -5.09)"/><path class="j" d="M53.67,78.87a1.47,1.47,0,0,1-.14.64.77.77,0,0,1-.3.35h0l0-.14a.68.68,0,0,0,.18-.31,1.69,1.69,0,0,0,.07-.54v0a1.65,1.65,0,0,0-.07-.54.79.79,0,0,0-.18-.32l0-.13h0a.72.72,0,0,1,.3.35,1.47,1.47,0,0,1,.14.64Z" transform="translate(-5.09 -5.09)"/><path class="j" d="M54.61,78.1v.26h.15v.2h-.15v.54a.2.2,0,0,0,0,.09.09.09,0,0,0,.06,0h.06l0,.2-.07,0h-.08a.29.29,0,0,1-.21-.08.38.38,0,0,1-.07-.26v-.54h-.13v-.2h.13V78.1Z" transform="translate(-5.09 -5.09)"/><path class="j" d="M55.18,78.49a.36.36,0,0,1,.1-.11.28.28,0,0,1,.13,0,.27.27,0,0,1,.23.12.58.58,0,0,1,.08.34v.62h-.28V78.8a.44.44,0,0,0,0-.19.11.11,0,0,0-.09,0l-.08,0-.06,0v.79h-.27V77.9h.27Z" transform="translate(-5.09 -5.09)"/><path class="j" d="M56.3,79.44A.39.39,0,0,1,56,79.3a.58.58,0,0,1-.12-.38v0a.67.67,0,0,1,.11-.39.37.37,0,0,1,.31-.15.36.36,0,0,1,.29.13.54.54,0,0,1,.1.35V79h-.53a.36.36,0,0,0,0,.19.17.17,0,0,0,.14.07l.14,0,.12-.06.07.17-.15.09A.71.71,0,0,1,56.3,79.44Zm0-.88a.11.11,0,0,0-.1.06.61.61,0,0,0,0,.17h.26v0a.33.33,0,0,0,0-.15S56.33,78.56,56.28,78.56Z" transform="translate(-5.09 -5.09)"/><path class="j" d="M57.75,78.6h-.1l-.07,0a.18.18,0,0,0,0,.07v.73h-.28V78.36h.26v.15a.36.36,0,0,1,.08-.12.16.16,0,0,1,.11,0h.07Z" transform="translate(-5.09 -5.09)"/><path class="j" d="M58.26,79.44a.39.39,0,0,1-.32-.14.58.58,0,0,1-.12-.38v0a.67.67,0,0,1,.11-.39.38.38,0,0,1,.32-.15.34.34,0,0,1,.28.13.54.54,0,0,1,.1.35V79H58.1a.36.36,0,0,0,0,.19.17.17,0,0,0,.14.07l.14,0,.12-.06.07.17-.15.09A.71.71,0,0,1,58.26,79.44Zm0-.88a.13.13,0,0,0-.11.06.61.61,0,0,0,0,.17h.26v0a.61.61,0,0,0,0-.15A.11.11,0,0,0,58.25,78.56Z" transform="translate(-5.09 -5.09)"/><path class="j" d="M59.06,79.42h-.27V77.9h.27Z" transform="translate(-5.09 -5.09)"/><path class="j" d="M59.55,78.11h-.28V77.9h.28Zm0,1.31h-.28V78.36h.28Z" transform="translate(-5.09 -5.09)"/><path class="j" d="M60.27,79.42a.19.19,0,0,1,0-.08.19.19,0,0,1,0-.08.3.3,0,0,1-.09.13.24.24,0,0,1-.14,0,.29.29,0,0,1-.22-.08.32.32,0,0,1-.08-.24.3.3,0,0,1,.1-.24.52.52,0,0,1,.31-.08h.12v-.09a.21.21,0,0,0,0-.12.1.1,0,0,0-.09,0,.11.11,0,0,0-.08,0,.15.15,0,0,0,0,.1h-.27a.26.26,0,0,1,.1-.23.44.44,0,0,1,.29-.1.41.41,0,0,1,.27.1.33.33,0,0,1,.1.27v.44a.66.66,0,0,0,0,.14l0,.13Zm-.2-.18a.18.18,0,0,0,.1,0,.16.16,0,0,0,.06-.08V79h-.12A.14.14,0,0,0,60,79a.2.2,0,0,0,0,.11.12.12,0,0,0,0,.09A.1.1,0,0,0,60.07,79.24Z" transform="translate(-5.09 -5.09)"/><path class="j" d="M61.52,78.92a.71.71,0,0,1-.09.38.31.31,0,0,1-.27.14.2.2,0,0,1-.13,0,.24.24,0,0,1-.1-.1l0,.12h-.23V77.9H61v.56a.38.38,0,0,1,.09-.09.27.27,0,0,1,.12,0,.29.29,0,0,1,.27.15.8.8,0,0,1,.09.41Zm-.28,0a.81.81,0,0,0,0-.25.12.12,0,0,0-.12-.09l-.08,0-.06.07v.49a.2.2,0,0,0,.06.07h.08a.11.11,0,0,0,.12-.07.71.71,0,0,0,0-.23Z" transform="translate(-5.09 -5.09)"/><path class="j" d="M62,78.11h-.27V77.9H62Zm0,1.31h-.27V78.36H62Z" transform="translate(-5.09 -5.09)"/><path class="j" d="M62.44,79.42h-.28V77.9h.28Z" transform="translate(-5.09 -5.09)"/><path class="j" d="M62.92,78.11h-.27V77.9h.27Zm0,1.31h-.27V78.36h.27Z" transform="translate(-5.09 -5.09)"/><path class="j" d="M63.44,78.1v.26h.14v.2h-.14v.54a.2.2,0,0,0,0,.09.05.05,0,0,0,0,0h.07l0,.2-.08,0h-.08a.26.26,0,0,1-.2-.08.38.38,0,0,1-.07-.26v-.54H63v-.2h.13V78.1Z" transform="translate(-5.09 -5.09)"/><path class="j" d="M64.08,79h0l.15-.64h.3l-.36,1.22a.68.68,0,0,1-.11.19.27.27,0,0,1-.21.08H63.8l-.07,0,0-.2h.05a.1.1,0,0,0,.09,0,.2.2,0,0,0,0-.08l0-.08-.32-1.07H64Z" transform="translate(-5.09 -5.09)"/><path class="j" d="M65.05,78.88a.6.6,0,0,1,.11-.39.42.42,0,0,1,.64,0,.6.6,0,0,1,.11.39v0a.6.6,0,0,1-.11.39.42.42,0,0,1-.64,0,.6.6,0,0,1-.11-.39Zm.27,0a.55.55,0,0,0,0,.24.12.12,0,0,0,.24,0,.55.55,0,0,0,0-.24v0a.53.53,0,0,0,0-.23.12.12,0,0,0-.24,0,.53.53,0,0,0,0,.23Z" transform="translate(-5.09 -5.09)"/><path class="j" d="M66.13,79.42v-.86H66v-.2h.14v-.12a.4.4,0,0,1,.09-.27.36.36,0,0,1,.26-.09h.06l.08,0,0,.2h-.09a.12.12,0,0,0-.08,0,.2.2,0,0,0,0,.11v.12h.17v.2H66.4v.86Z" transform="translate(-5.09 -5.09)"/><path class="j" d="M67.45,78.1v.26h.15v.2h-.15v.54a.2.2,0,0,0,0,.09.06.06,0,0,0,.06,0h.06l0,.2-.07,0h-.09a.26.26,0,0,1-.2-.08.38.38,0,0,1-.07-.26v-.54h-.13v-.2h.13V78.1Z" transform="translate(-5.09 -5.09)"/><path class="j" d="M68,78.49a.36.36,0,0,1,.1-.11.28.28,0,0,1,.13,0,.25.25,0,0,1,.22.12.52.52,0,0,1,.08.34v.62h-.27V78.8a.44.44,0,0,0,0-.19.11.11,0,0,0-.09,0l-.08,0a.1.1,0,0,0-.06,0v.79h-.28V77.9H68Z" transform="translate(-5.09 -5.09)"/><path class="j" d="M69.14,79.44a.42.42,0,0,1-.33-.14.63.63,0,0,1-.11-.38v0a.67.67,0,0,1,.11-.39.39.39,0,0,1,.6,0,.61.61,0,0,1,.1.35V79H69a.47.47,0,0,0,.06.19.17.17,0,0,0,.14.07l.14,0,.12-.06.07.17-.16.09A.64.64,0,0,1,69.14,79.44Zm0-.88a.11.11,0,0,0-.1.06.39.39,0,0,0,0,.17h.26v0a.33.33,0,0,0,0-.15A.11.11,0,0,0,69.12,78.56Z" transform="translate(-5.09 -5.09)"/><path class="j" d="M70.56,79.14a.13.13,0,0,0,0-.08L70.39,79a.83.83,0,0,1-.25-.13.28.28,0,0,1-.08-.2.31.31,0,0,1,.11-.22.37.37,0,0,1,.27-.09.37.37,0,0,1,.28.1.27.27,0,0,1,.1.24h-.26a.2.2,0,0,0,0-.11.13.13,0,0,0-.09,0,.09.09,0,0,0-.08,0,.08.08,0,0,0,0,.07.09.09,0,0,0,0,.08l.14.08a.65.65,0,0,1,.25.13.28.28,0,0,1,.08.2.27.27,0,0,1-.11.22.44.44,0,0,1-.29.09.36.36,0,0,1-.29-.11.32.32,0,0,1-.1-.23h.25a.17.17,0,0,0,0,.12.15.15,0,0,0,.11,0,.12.12,0,0,0,.09,0A.1.1,0,0,0,70.56,79.14Z" transform="translate(-5.09 -5.09)"/><path class="j" d="M70.94,78.88a.6.6,0,0,1,.11-.39.37.37,0,0,1,.32-.15.38.38,0,0,1,.32.15.6.6,0,0,1,.11.39v0a.6.6,0,0,1-.11.39.42.42,0,0,1-.64,0,.6.6,0,0,1-.11-.39Zm.27,0a.55.55,0,0,0,0,.24.12.12,0,0,0,.24,0,.55.55,0,0,0,0-.24v0a.53.53,0,0,0,0-.23.12.12,0,0,0-.24,0,.53.53,0,0,0,0,.23Z" transform="translate(-5.09 -5.09)"/><path class="j" d="M72.5,79.27a.32.32,0,0,1-.1.13.24.24,0,0,1-.15,0,.27.27,0,0,1-.22-.11A.6.6,0,0,1,72,79v-.61h.27V79a.46.46,0,0,0,0,.2.09.09,0,0,0,.09,0h.08s0,0,.06-.06v-.79h.28v1.06h-.23Z" transform="translate(-5.09 -5.09)"/><path class="j" d="M73.43,78.6h-.09l-.08,0a.18.18,0,0,0-.05.07v.73h-.27V78.36h.26v.15a.35.35,0,0,1,.07-.12.18.18,0,0,1,.11,0h.07Z" transform="translate(-5.09 -5.09)"/><path class="j" d="M73.93,79.23a.11.11,0,0,0,.09,0,.21.21,0,0,0,0-.12h.25a.36.36,0,0,1-.1.27.33.33,0,0,1-.27.11.38.38,0,0,1-.32-.15.66.66,0,0,1-.11-.38v0a.67.67,0,0,1,.11-.39.38.38,0,0,1,.32-.15.37.37,0,0,1,.27.11.44.44,0,0,1,.1.3h-.25a.32.32,0,0,0,0-.14.11.11,0,0,0-.09,0,.12.12,0,0,0-.12.09.71.71,0,0,0,0,.23v0a.75.75,0,0,0,0,.23A.12.12,0,0,0,73.93,79.23Z" transform="translate(-5.09 -5.09)"/><path class="j" d="M74.85,79.44a.42.42,0,0,1-.33-.14.57.57,0,0,1-.11-.38v0a.6.6,0,0,1,.11-.39.35.35,0,0,1,.31-.15.34.34,0,0,1,.28.13.54.54,0,0,1,.1.35V79h-.53a.48.48,0,0,0,0,.19.2.2,0,0,0,.15.07l.13,0,.12-.06.07.17a.49.49,0,0,1-.15.09A.64.64,0,0,1,74.85,79.44Zm0-.88a.1.1,0,0,0-.1.06.38.38,0,0,0,0,.17H75v0a.33.33,0,0,0,0-.15A.11.11,0,0,0,74.83,78.56Z" transform="translate(-5.09 -5.09)"/><path class="j" d="M76.33,79.42l0-.08s0,0,0-.08a.3.3,0,0,1-.09.13.22.22,0,0,1-.14,0,.31.31,0,0,1-.22-.08.36.36,0,0,1-.08-.24.33.33,0,0,1,.1-.24.52.52,0,0,1,.31-.08h.12v-.09a.21.21,0,0,0,0-.12.1.1,0,0,0-.09,0,.08.08,0,0,0-.07,0,.15.15,0,0,0,0,.1h-.27a.27.27,0,0,1,.11-.23.41.41,0,0,1,.28-.1.41.41,0,0,1,.27.1.34.34,0,0,1,.11.27v.44a.66.66,0,0,0,0,.14.31.31,0,0,0,0,.13Zm-.21-.18a.18.18,0,0,0,.1,0,.16.16,0,0,0,.06-.08V79h-.12a.11.11,0,0,0-.1,0,.21.21,0,0,0,0,.2A.1.1,0,0,0,76.12,79.24Z" transform="translate(-5.09 -5.09)"/><path class="j" d="M77,78.36v.15a.32.32,0,0,1,.11-.12.24.24,0,0,1,.14,0,.25.25,0,0,1,.21.11.57.57,0,0,1,.08.33v.64h-.28v-.64a.59.59,0,0,0,0-.17.11.11,0,0,0-.09,0l-.08,0-.07.06v.78h-.27V78.36Z" transform="translate(-5.09 -5.09)"/><path class="j" d="M77.68,78.9a.76.76,0,0,1,.09-.4.3.3,0,0,1,.27-.16.2.2,0,0,1,.11,0,.26.26,0,0,1,.09.09V77.9h.28v1.52h-.24l0-.12a.24.24,0,0,1-.1.1.18.18,0,0,1-.13,0,.31.31,0,0,1-.26-.14.71.71,0,0,1-.09-.38Zm.27,0a.62.62,0,0,0,0,.22.11.11,0,0,0,.12.08.1.1,0,0,0,.07,0,.09.09,0,0,0,.06-.06v-.48a.11.11,0,0,0-.06-.07.11.11,0,0,0-.07,0,.12.12,0,0,0-.12.09.82.82,0,0,0,0,.25Z" transform="translate(-5.09 -5.09)"/><path class="j" d="M51.69,86.84a1.41,1.41,0,0,1,.13-.64.66.66,0,0,1,.29-.35h0l0,.14a.68.68,0,0,0-.17.31,1.62,1.62,0,0,0-.08.54v0a1.66,1.66,0,0,0,.08.54.74.74,0,0,0,.17.31l0,.14h0a.7.7,0,0,1-.29-.35,1.41,1.41,0,0,1-.13-.64Z" transform="translate(-5.09 -5.09)"/><path class="j" d="M53.13,86.92a.71.71,0,0,1-.09.38.3.3,0,0,1-.26.14.23.23,0,0,1-.14,0,.22.22,0,0,1-.09-.1l0,.12h-.24V85.9h.28v.56a.2.2,0,0,1,.09-.09.21.21,0,0,1,.12,0,.29.29,0,0,1,.26.15.8.8,0,0,1,.09.41Zm-.27,0a.57.57,0,0,0,0-.25.11.11,0,0,0-.11-.09l-.09,0a.18.18,0,0,0,0,.07v.49a.18.18,0,0,0,0,.07h.09a.11.11,0,0,0,.11-.07.5.5,0,0,0,0-.23Z" transform="translate(-5.09 -5.09)"/><path class="j" d="M53.72,86.87a1.47,1.47,0,0,1-.14.64.77.77,0,0,1-.3.35h0l-.05-.14a.68.68,0,0,0,.18-.31,1.69,1.69,0,0,0,.07-.54v0a1.65,1.65,0,0,0-.07-.54.79.79,0,0,0-.18-.32l.05-.13h0a.72.72,0,0,1,.3.35,1.47,1.47,0,0,1,.14.64Z" transform="translate(-5.09 -5.09)"/><path class="j" d="M54.66,86.1v.26h.15v.2h-.15v.54a.2.2,0,0,0,0,.09.09.09,0,0,0,.06,0h.06l0,.2-.07,0h-.08a.29.29,0,0,1-.21-.08.38.38,0,0,1-.07-.26v-.54h-.13v-.2h.13V86.1Z" transform="translate(-5.09 -5.09)"/><path class="j" d="M55.23,86.49a.36.36,0,0,1,.1-.11.28.28,0,0,1,.13,0,.27.27,0,0,1,.23.12.58.58,0,0,1,.08.34v.62h-.28V86.8a.44.44,0,0,0,0-.19.11.11,0,0,0-.09,0l-.08,0-.06,0v.79H55V85.9h.27Z" transform="translate(-5.09 -5.09)"/><path class="j" d="M56.35,87.44A.39.39,0,0,1,56,87.3a.58.58,0,0,1-.12-.38v0a.67.67,0,0,1,.11-.39.37.37,0,0,1,.31-.15.36.36,0,0,1,.29.13.54.54,0,0,1,.1.35V87h-.53a.36.36,0,0,0,.05.19.17.17,0,0,0,.14.07l.14,0,.12-.06.07.17-.15.09A.76.76,0,0,1,56.35,87.44Zm0-.88a.11.11,0,0,0-.1.06.61.61,0,0,0,0,.17h.26v0a.33.33,0,0,0,0-.15S56.38,86.56,56.33,86.56Z" transform="translate(-5.09 -5.09)"/><path class="j" d="M57.83,87.42a1027571250991.45,1027571250991.45,0,0,0,0-.16.3.3,0,0,1-.09.13.24.24,0,0,1-.14,0,.29.29,0,0,1-.22-.08.32.32,0,0,1-.08-.24.3.3,0,0,1,.1-.24.52.52,0,0,1,.31-.08h.12v-.09a.21.21,0,0,0,0-.12.1.1,0,0,0-.09,0,.11.11,0,0,0-.08,0,.15.15,0,0,0,0,.1H57.3a.26.26,0,0,1,.1-.23.44.44,0,0,1,.29-.1.41.41,0,0,1,.27.1.33.33,0,0,1,.1.27v.44a.66.66,0,0,0,0,.14.65.65,0,0,0,0,.13Zm-.2-.18a.18.18,0,0,0,.1,0,.16.16,0,0,0,.06-.08V87h-.12a.14.14,0,0,0-.11,0,.2.2,0,0,0,0,.11.12.12,0,0,0,0,.09A.1.1,0,0,0,57.63,87.24Z" transform="translate(-5.09 -5.09)"/><path class="j" d="M58.63,87.23a.11.11,0,0,0,.09,0,.21.21,0,0,0,0-.12H59a.36.36,0,0,1-.1.27.35.35,0,0,1-.27.11.37.37,0,0,1-.32-.15.66.66,0,0,1-.11-.38v0a.67.67,0,0,1,.11-.39.4.4,0,0,1,.59,0,.44.44,0,0,1,.1.3h-.25a.32.32,0,0,0,0-.14.11.11,0,0,0-.09,0,.12.12,0,0,0-.12.09.68.68,0,0,0,0,.23v0a.73.73,0,0,0,0,.23A.12.12,0,0,0,58.63,87.23Z" transform="translate(-5.09 -5.09)"/><path class="j" d="M59.53,87.23a.11.11,0,0,0,.09,0,.21.21,0,0,0,0-.12h.25a.36.36,0,0,1-.37.38.37.37,0,0,1-.32-.15.66.66,0,0,1-.11-.38v0a.67.67,0,0,1,.11-.39.4.4,0,0,1,.59,0,.44.44,0,0,1,.1.3h-.25a.32.32,0,0,0,0-.14.11.11,0,0,0-.09,0,.12.12,0,0,0-.12.09.5.5,0,0,0,0,.23v0a.53.53,0,0,0,0,.23A.12.12,0,0,0,59.53,87.23Z" transform="translate(-5.09 -5.09)"/><path class="j" d="M60.59,87.27a.47.47,0,0,1-.11.13.23.23,0,0,1-.14,0,.28.28,0,0,1-.23-.11A.69.69,0,0,1,60,87v-.61h.28V87a.81.81,0,0,0,0,.2.09.09,0,0,0,.09,0h.09a.34.34,0,0,0,.06-.06v-.79h.27v1.06h-.22Z" transform="translate(-5.09 -5.09)"/><path class="j" d="M61.51,86.6h-.09l-.08,0a.16.16,0,0,0,0,.07v.73H61V86.36h.26v.15a.36.36,0,0,1,.08-.12.16.16,0,0,1,.11,0h.06Z" transform="translate(-5.09 -5.09)"/><path class="j" d="M62.17,87.42a1027571250996.64,1027571250996.64,0,0,1,0-.16.3.3,0,0,1-.09.13.24.24,0,0,1-.14,0,.29.29,0,0,1-.22-.08.32.32,0,0,1-.08-.24.3.3,0,0,1,.1-.24A.52.52,0,0,1,62,86.8h.12v-.09a.21.21,0,0,0,0-.12.1.1,0,0,0-.09,0,.11.11,0,0,0-.08,0,.15.15,0,0,0,0,.1h-.27a.26.26,0,0,1,.1-.23.44.44,0,0,1,.29-.1.41.41,0,0,1,.27.1.33.33,0,0,1,.1.27v.44a.66.66,0,0,0,0,.14.65.65,0,0,0,0,.13Zm-.2-.18a.18.18,0,0,0,.1,0,.16.16,0,0,0,.06-.08V87H62a.14.14,0,0,0-.11,0,.2.2,0,0,0,0,.11.12.12,0,0,0,0,.09A.1.1,0,0,0,62,87.24Z" transform="translate(-5.09 -5.09)"/><path class="j" d="M63,87.23a.11.11,0,0,0,.09,0,.21.21,0,0,0,0-.12h.25a.36.36,0,0,1-.1.27.35.35,0,0,1-.27.11.37.37,0,0,1-.32-.15.66.66,0,0,1-.11-.38v0a.67.67,0,0,1,.11-.39.4.4,0,0,1,.59,0,.44.44,0,0,1,.1.3h-.25a.32.32,0,0,0,0-.14.11.11,0,0,0-.09,0,.12.12,0,0,0-.12.09.68.68,0,0,0,0,.23v0a.73.73,0,0,0,0,.23A.12.12,0,0,0,63,87.23Z" transform="translate(-5.09 -5.09)"/><path class="j" d="M63.82,87h0l.15-.64h.3l-.36,1.22a.68.68,0,0,1-.11.19.29.29,0,0,1-.21.08h-.06l-.07,0,0-.2h0a.11.11,0,0,0,.1,0,.2.2,0,0,0,0-.08l0-.08-.32-1.07h.3Z" transform="translate(-5.09 -5.09)"/><path class="j" d="M64.78,86.88a.61.61,0,0,1,.12-.39.37.37,0,0,1,.32-.15.38.38,0,0,1,.32.15.6.6,0,0,1,.11.39v0a.6.6,0,0,1-.11.39.42.42,0,0,1-.64,0,.61.61,0,0,1-.12-.39Zm.28,0a.55.55,0,0,0,0,.24.12.12,0,0,0,.24,0,.55.55,0,0,0,0-.24v0a.53.53,0,0,0,0-.23.13.13,0,0,0-.24,0,.53.53,0,0,0,0,.23Z" transform="translate(-5.09 -5.09)"/><path class="j" d="M65.87,87.42v-.86h-.14v-.2h.14v-.12A.4.4,0,0,1,66,86a.36.36,0,0,1,.26-.09h.06l.08,0,0,.2h-.09a.12.12,0,0,0-.08,0,.2.2,0,0,0,0,.11v.12h.17v.2h-.17v.86Z" transform="translate(-5.09 -5.09)"/><path class="j" d="M67.19,86.1v.26h.14v.2h-.14v.54a.2.2,0,0,0,0,.09.05.05,0,0,0,.05,0h.07l0,.2-.08,0h-.08a.26.26,0,0,1-.2-.08.38.38,0,0,1-.07-.26v-.54h-.13v-.2h.13V86.1Z" transform="translate(-5.09 -5.09)"/><path class="j" d="M67.76,86.49a.27.27,0,0,1,.1-.11.28.28,0,0,1,.13,0,.25.25,0,0,1,.22.12.52.52,0,0,1,.08.34v.62H68V86.8a.44.44,0,0,0,0-.19.11.11,0,0,0-.09,0l-.08,0a.1.1,0,0,0-.06,0v.79h-.28V85.9h.28Z" transform="translate(-5.09 -5.09)"/><path class="j" d="M68.88,87.44a.42.42,0,0,1-.33-.14.63.63,0,0,1-.11-.38v0a.67.67,0,0,1,.11-.39.39.39,0,0,1,.6,0,.61.61,0,0,1,.1.35V87h-.54a.47.47,0,0,0,.06.19.17.17,0,0,0,.14.07l.14,0,.12-.06.07.17-.16.09A.64.64,0,0,1,68.88,87.44Zm0-.88a.1.1,0,0,0-.1.06.39.39,0,0,0,0,.17H69v0a.33.33,0,0,0,0-.15A.11.11,0,0,0,68.86,86.56Z" transform="translate(-5.09 -5.09)"/><path class="j" d="M70.12,86.11h-.28V85.9h.28Zm0,1.31h-.28V86.36h.28Z" transform="translate(-5.09 -5.09)"/><path class="j" d="M70.57,86.36v.15a.43.43,0,0,1,.11-.12.24.24,0,0,1,.14,0,.28.28,0,0,1,.22.11.58.58,0,0,1,.07.33v.64h-.27v-.64a.34.34,0,0,0,0-.17.11.11,0,0,0-.09,0l-.08,0a.17.17,0,0,0-.06.06v.78h-.28V86.36Z" transform="translate(-5.09 -5.09)"/><path class="j" d="M71.36,87.42v-.86h-.13v-.2h.13v-.12a.36.36,0,0,1,.1-.27.34.34,0,0,1,.26-.09h.06l.07,0,0,.2h-.08a.1.1,0,0,0-.08,0,.2.2,0,0,0,0,.11v.12h.17v.2h-.17v.86Z" transform="translate(-5.09 -5.09)"/><path class="j" d="M71.89,86.88a.67.67,0,0,1,.11-.39.39.39,0,0,1,.32-.15.37.37,0,0,1,.32.15.61.61,0,0,1,.12.39v0a.61.61,0,0,1-.12.39.37.37,0,0,1-.32.15.39.39,0,0,1-.32-.15.67.67,0,0,1-.11-.39Zm.27,0a.75.75,0,0,0,0,.24.13.13,0,0,0,.12.09.14.14,0,0,0,.13-.09.78.78,0,0,0,0-.24v0a.75.75,0,0,0,0-.23.14.14,0,0,0-.13-.09.13.13,0,0,0-.12.09.73.73,0,0,0,0,.23Z" transform="translate(-5.09 -5.09)"/><path class="j" d="M73.4,86.6h-.09l-.08,0a.18.18,0,0,0,0,.07v.73h-.27V86.36h.25l0,.15a.35.35,0,0,1,.07-.12.16.16,0,0,1,.11,0h.07Z" transform="translate(-5.09 -5.09)"/><path class="j" d="M73.79,86.36v.14a.32.32,0,0,1,.11-.12.33.33,0,0,1,.14,0,.25.25,0,0,1,.15,0,.25.25,0,0,1,.09.13.28.28,0,0,1,.11-.13.25.25,0,0,1,.15,0,.24.24,0,0,1,.21.12.58.58,0,0,1,.08.34v.62h-.28V86.8a.78.78,0,0,0,0-.19.11.11,0,0,0-.09,0,.11.11,0,0,0-.08,0,.1.1,0,0,0-.05.06v.77h-.27V86.8a.44.44,0,0,0,0-.19.11.11,0,0,0-.09,0l-.07,0a.1.1,0,0,0,0,.06v.78h-.28V86.36Z" transform="translate(-5.09 -5.09)"/><path class="j" d="M75.55,87.42a.19.19,0,0,1,0-.08.19.19,0,0,1,0-.08.3.3,0,0,1-.09.13.24.24,0,0,1-.14,0,.29.29,0,0,1-.22-.08.32.32,0,0,1-.08-.24.3.3,0,0,1,.1-.24.52.52,0,0,1,.31-.08h.12v-.09a.21.21,0,0,0,0-.12.1.1,0,0,0-.09,0,.11.11,0,0,0-.08,0,.15.15,0,0,0,0,.1H75a.26.26,0,0,1,.1-.23.44.44,0,0,1,.29-.1.41.41,0,0,1,.27.1.33.33,0,0,1,.1.27v.44a.66.66,0,0,0,0,.14l0,.13Zm-.2-.18a.18.18,0,0,0,.1,0,.16.16,0,0,0,.06-.08V87h-.12a.14.14,0,0,0-.11,0,.2.2,0,0,0,0,.11.12.12,0,0,0,0,.09A.1.1,0,0,0,75.35,87.24Z" transform="translate(-5.09 -5.09)"/><path class="j" d="M76.28,86.1v.26h.14v.2h-.14v.54a.2.2,0,0,0,0,.09.05.05,0,0,0,0,0h.07l0,.2-.08,0h-.08a.26.26,0,0,1-.2-.08A.38.38,0,0,1,76,87.1v-.54h-.13v-.2H76V86.1Z" transform="translate(-5.09 -5.09)"/><path class="j" d="M76.87,86.11h-.28V85.9h.28Zm0,1.31h-.28V86.36h.28Z" transform="translate(-5.09 -5.09)"/><path class="j" d="M77,86.88a.67.67,0,0,1,.11-.39.39.39,0,0,1,.32-.15.37.37,0,0,1,.32.15.61.61,0,0,1,.12.39v0a.61.61,0,0,1-.12.39.36.36,0,0,1-.31.15.4.4,0,0,1-.33-.15A.67.67,0,0,1,77,86.9Zm.27,0a.75.75,0,0,0,0,.24.14.14,0,0,0,.13.09.14.14,0,0,0,.12-.09.78.78,0,0,0,0-.24v0a.75.75,0,0,0,0-.23.14.14,0,0,0-.13-.09.14.14,0,0,0-.12.09.73.73,0,0,0,0,.23Z" transform="translate(-5.09 -5.09)"/><path class="j" d="M78.3,86.36v.15a.43.43,0,0,1,.11-.12.27.27,0,0,1,.15,0,.25.25,0,0,1,.21.11.57.57,0,0,1,.08.33v.64h-.28v-.64a.34.34,0,0,0,0-.17.11.11,0,0,0-.09,0l-.08,0-.06.06v.78H78V86.36Z" transform="translate(-5.09 -5.09)"/><path class="k" d="M62.68,84.1a3,3,0,0,0-4.78-3.71L50,89.5a1.92,1.92,0,0,1-2.37.44l-3.9-2.08A8.2,8.2,0,0,1,41,85.49L39.7,83.72l-3.25,1.74a1.77,1.77,0,0,0-.91,1.23l-3.16,15.7a1.47,1.47,0,0,0,0,.59l2.06,11.26-1.14,7.54,12.93-1.69c1.85-2.6,2.47-3.21,3.3-4.5a30.29,30.29,0,0,0,3.81-8.44l2.14-8a1.7,1.7,0,0,1,.18-.44l.79-5.57Z" transform="translate(-5.09 -5.09)"/><rect class="g" x="37.12" y="111.47" width="5.06" height="18.1" transform="matrix(-0.17, 0.98, -0.98, -0.17, 160.14, 97.38)"/><path class="l" d="M29.6,121.32l-1.54,7a71.18,71.18,0,0,0,19.27,13.61l2.18-17.06Z" transform="translate(-5.09 -5.09)"/><line class="m" x1="23.94" y1="118.81" x2="44.08" y2="122.41"/><line class="m" x1="23.44" y1="121.06" x2="43.79" y2="124.7"/><line class="m" x1="22.95" y1="123.29" x2="43.5" y2="126.97"/><path class="n" d="M42.75,123.69l1.49.22.95-5,3.42-2-1.75,2.3,2.14.4-.88,5,1.39.24-2.18,17.06a71.75,71.75,0,0,1-7.17-4Z" transform="translate(-5.09 -5.09)"/><path class="o" d="M90.14,89.28l-.8,1a.39.39,0,0,0,.11.56l3.92,2.31.06,0L95.5,94a.34.34,0,0,0,.35,0l1.79-1.34a.38.38,0,0,0,.15-.24l.57-3.08a.39.39,0,0,0-.39-.45l-.48,0,.16.77-.16-.77-7.06.3A.36.36,0,0,0,90.14,89.28Z" transform="translate(-5.09 -5.09)"/><rect class="g" x="107.19" y="108.01" width="6.7" height="17.9" transform="translate(196.45 -20.86) rotate(77.81)"/><path class="k" d="M113.53,77.73a.51.51,0,0,0-.37-.27L94.45,74.29A1.37,1.37,0,0,0,92.89,76l.65,2.68a.65.65,0,0,1,0,.24l2.21-.09L108.89,84l2.41,4.8-1.83,3.29-1.1,2,.37.3a.38.38,0,0,1,0,.59l-2.45,2A.38.38,0,0,1,106,97l-.4,0c1.16,4.77,5.36,8.75,10.13,10.51a1.53,1.53,0,0,1,.14-.41l4-7.24,1.26-2.28a3,3,0,0,0,.3-2.05l-.94-4.41Z" transform="translate(-5.09 -5.09)"/><path class="l" d="M124.65,132,121,117.9l-19.55,4.2L105,143.77C112.32,143.33,117.74,134.69,124.65,132Z" transform="translate(-5.09 -5.09)"/><path class="b" d="M97.66,87.25l3.71,3.37c-.07-.23,8,4,8,4L112.51,89l-2.59-5.16L95.81,78.2l-2.37.1C93.43,78.69,97.66,87.25,97.66,87.25Z" transform="translate(-5.09 -5.09)"/><path class="p" d="M118,94.75l-30.25-23-2.89,3.73L115.08,98.7a1.51,1.51,0,0,0,2.16-.34l1.08-1.55A1.52,1.52,0,0,0,118,94.75Z" transform="translate(-5.09 -5.09)"/><polygon class="k" points="79.76 70.39 77.14 65.78 82.66 66.65 79.76 70.39"/><polygon class="p" points="77.14 65.78 78.16 67.56 79.2 66.11 77.14 65.78"/><line class="m" x1="96.56" y1="119.32" x2="116.56" y2="114.99"/><line class="m" x1="96.95" y1="121.59" x2="117.15" y2="117.21"/><line class="m" x1="97.34" y1="123.84" x2="117.75" y2="119.42"/><path class="k" d="M105.62,97l-1.83-.13a.37.37,0,0,1-.3-.19l-1.08-1.92,0-.06L101.51,92l-2-5.67-2.2-4.72a3.39,3.39,0,0,0-3.78-1.88l-.81.17a3.25,3.25,0,0,0-1.29,4.35l1,1.81,1.45,5.27.94,8.9a2.46,2.46,0,0,0,.1.47l1.75,5.57a2.85,2.85,0,0,0,.69,1.14l3.25,3.32a1.56,1.56,0,0,1,.36.62l1.14,4,14.59-3.11-.89-4.17a1.51,1.51,0,0,1,0-.6C111,105.71,106.78,101.73,105.62,97Z" transform="translate(-5.09 -5.09)"/><path class="n" d="M106.41,121l-.73.16-1.22-6.36-.7.16-.53-2.2-2.33-1.4,1.14,4-1,.23,1.36,6.29-1,.23L105,143.77c2.27-.14,4.53-.38,6.77-.74Z" transform="translate(-5.09 -5.09)"/><circle class="q" cx="72.87" cy="72.87" r="70.87"/></svg>