<svg xmlns="http://www.w3.org/2000/svg" xmlns:xlink="http://www.w3.org/1999/xlink" width="5.14cm" height="5.14cm" viewBox="0 0 145.65 145.65">
  <defs>
    <clipPath id="a" transform="translate(-5.13 -5.13)">
      <circle cx="77.95" cy="77.95" r="70.87" fill="none" opacity="0.8"/>
    </clipPath>
  </defs>
  <title>G04_13_02</title>
  <g>
    <g clip-path="url(#a)">
      <circle cx="72.83" cy="72.83" r="70.87" fill="#f5ad1f" opacity="0.8"/>
      <g>
        <path d="M46.1,98.21c.21-.77.41-1.54.62-2.3" transform="translate(-5.13 -5.13)" fill="none" stroke="#e20a17" stroke-linecap="round" stroke-linejoin="round" stroke-width="2"/>
        <path d="M48,91.41c9.42-31.77,22.84-51.62,37.73-51.62,19.17,0,35.91,32.94,44.81,81.85" transform="translate(-5.13 -5.13)" fill="none" stroke="#e20a17" stroke-linecap="round" stroke-linejoin="round" stroke-width="2" stroke-dasharray="4.68 4.68"/>
        <path d="M131,124c.14.78.27,1.56.41,2.35" transform="translate(-5.13 -5.13)" fill="none" stroke="#e20a17" stroke-linecap="round" stroke-linejoin="round" stroke-width="2"/>
      </g>
      <g>
        <path d="M41.16,56.78q.69-1.16,1.41-2.28" transform="translate(-5.13 -5.13)" fill="none" stroke="#008d36" stroke-linecap="round" stroke-linejoin="round" stroke-width="2"/>
        <path d="M45.61,50C55,36.87,65.88,29.39,77.44,29.39c24.93,0,46.6,34.77,57.61,85.9" transform="translate(-5.13 -5.13)" fill="none" stroke="#008d36" stroke-linecap="round" stroke-linejoin="round" stroke-width="2" stroke-dasharray="5.43 5.43"/>
        <path d="M135.61,118c.18.88.35,1.75.53,2.64" transform="translate(-5.13 -5.13)" fill="none" stroke="#008d36" stroke-linecap="round" stroke-linejoin="round" stroke-width="2"/>
      </g>
      <g>
        <path d="M48.54,26.44c.81-.62,1.62-1.21,2.44-1.77" transform="translate(-5.13 -5.13)" fill="none" stroke="#1d71b8" stroke-linecap="round" stroke-linejoin="round" stroke-width="2"/>
        <path d="M56,21.7a35.33,35.33,0,0,1,16.09-4c28.53,0,53.37,37,66.27,91.67" transform="translate(-5.13 -5.13)" fill="none" stroke="#1d71b8" stroke-linecap="round" stroke-linejoin="round" stroke-width="2" stroke-dasharray="5.84 5.84"/>
        <path d="M139,112.19c.22,1,.43,2,.65,2.94" transform="translate(-5.13 -5.13)" fill="none" stroke="#1d71b8" stroke-linecap="round" stroke-linejoin="round" stroke-width="2"/>
      </g>
      <g>
        <path d="M38.33,29.27l-8.15,7.62a1.23,1.23,0,0,0-.06,1.73L34.25,43A1.23,1.23,0,0,0,36,43.1l8.15-7.61a1.24,1.24,0,0,0,.38-.89,1.25,1.25,0,0,0,.92-.33l.1-.09a1.23,1.23,0,0,0,.06-1.74L41.47,28A1.24,1.24,0,0,0,39.73,28l-.1.1a1.2,1.2,0,0,0-.38.89A1.23,1.23,0,0,0,38.33,29.27Z" transform="translate(-5.13 -5.13)" fill="#575756"/>
        <path d="M28.05,40.8l1.78-1.73,3.9,4.18-1.81,1.69A11.4,11.4,0,0,1,25,47.53,11.31,11.31,0,0,1,28.05,40.8Z" transform="translate(-5.13 -5.13)" fill="#3c3c3b"/>
      </g>
      <g>
        <path d="M33.5,62.17,28.21,72a1.24,1.24,0,0,0,.5,1.67L34,76.51A1.21,1.21,0,0,0,35.7,76L41,66.2a1.22,1.22,0,0,0,.07-1,1.24,1.24,0,0,0,.77-.6l.07-.12a1.23,1.23,0,0,0-.5-1.67L36.07,60a1.23,1.23,0,0,0-1.66.5l-.07.13a1.22,1.22,0,0,0-.07,1A1.21,1.21,0,0,0,33.5,62.17Z" transform="translate(-5.13 -5.13)" fill="#706f6f"/>
        <path d="M27.44,76.37l1.14-2.21,5,2.71-1.17,2.19a11.4,11.4,0,0,1-5.74,4.67A11.44,11.44,0,0,1,27.44,76.37Z" transform="translate(-5.13 -5.13)" fill="#3c3c3b"/>
      </g>
      <g>
        <path d="M40.12,105.07l-2.83,10.79a1.24,1.24,0,0,0,.88,1.5L44,118.89a1.24,1.24,0,0,0,1.5-.88l2.82-10.78a1.23,1.23,0,0,0-.15-1,1.18,1.18,0,0,0,.6-.76l0-.14a1.23,1.23,0,0,0-.88-1.5l-5.85-1.53a1.23,1.23,0,0,0-1.5.87l0,.14a1.23,1.23,0,0,0,.15,1A1.21,1.21,0,0,0,40.12,105.07Z" transform="translate(-5.13 -5.13)" fill="#878787"/>
        <path d="M37.57,120.3l.59-2.41,5.53,1.45-.63,2.4a11.4,11.4,0,0,1-4.48,5.89A11.44,11.44,0,0,1,37.57,120.3Z" transform="translate(-5.13 -5.13)" fill="#3c3c3b"/>
      </g>
    </g>
    <circle cx="72.83" cy="72.83" r="70.87" fill="none" stroke="#eaeaea" stroke-miterlimit="10" stroke-width="3.92"/>
  </g>
</svg>
