<?xml version="1.0" encoding="utf-8"?>
<!-- Generator: Adobe Illustrator 23.0.3, SVG Export Plug-In . SVG Version: 6.00 Build 0)  -->
<svg version="1.1" id="Livello_1" xmlns="http://www.w3.org/2000/svg" xmlns:xlink="http://www.w3.org/1999/xlink" x="0px" y="0px"
	 viewBox="0 0 185.67 181.42" style="enable-background:new 0 0 185.67 181.42;" xml:space="preserve">
<style type="text/css">
	.st0{fill:#C0D0E2;}
	.st1{fill:#738EAD;}
	.st2{fill:#9DB3D0;}
	.st3{fill:#5B5B5A;}
	.st4{fill:#F6BBC6;}
	.st5{fill:#303B45;}
	.st6{fill:#4D4471;}
	.st7{fill:#353430;}
	.st8{fill:#EAEAEA;}
	.st9{fill:none;stroke:#FBC01F;stroke-width:1.12;stroke-miterlimit:10;}
	.st10{fill:none;stroke:#4294CE;stroke-width:1.12;stroke-miterlimit:10;}
	.st11{fill:none;stroke:#FFFFFF;stroke-width:1.12;stroke-miterlimit:10;}
	.st12{fill:#EBEBEB;}
	.st13{fill-rule:evenodd;clip-rule:evenodd;fill:#5B5B5A;}
	.st14{fill:#4D4A81;}
	.st15{fill-rule:evenodd;clip-rule:evenodd;fill:#6A6766;}
	.st16{fill-rule:evenodd;clip-rule:evenodd;fill:#353230;}
	.st17{fill-rule:evenodd;clip-rule:evenodd;fill:#8A8B8C;}
	.st18{fill-rule:evenodd;clip-rule:evenodd;fill:#AFAFB1;}
	.st19{fill-rule:evenodd;clip-rule:evenodd;fill:#377D84;}
	.st20{fill-rule:evenodd;clip-rule:evenodd;fill:#48ABB4;}
	.st21{fill-rule:evenodd;clip-rule:evenodd;fill:#ABABAB;}
	.st22{fill-rule:evenodd;clip-rule:evenodd;fill:#969696;}
	.st23{fill-rule:evenodd;clip-rule:evenodd;fill:#CDCBCB;}
	.st24{fill-rule:evenodd;clip-rule:evenodd;fill:#F6BBC6;}
	.st25{fill-rule:evenodd;clip-rule:evenodd;fill:#1F3446;}
	.st26{fill:#F9B233;}
	.st27{fill-rule:evenodd;clip-rule:evenodd;fill:#353430;}
	.st28{fill-rule:evenodd;clip-rule:evenodd;fill:#808081;}
	.st29{fill-rule:evenodd;clip-rule:evenodd;fill:#36393B;}
	.st30{fill-rule:evenodd;clip-rule:evenodd;fill:#66411D;}
	.st31{fill-rule:evenodd;clip-rule:evenodd;fill:#946335;}
	.st32{fill-rule:evenodd;clip-rule:evenodd;fill:#492E16;}
	.st33{fill-rule:evenodd;clip-rule:evenodd;fill:#4D4A81;}
	.st34{fill-rule:evenodd;clip-rule:evenodd;fill:#0A0B0B;}
	.st35{fill-rule:evenodd;clip-rule:evenodd;fill:#1F1F20;}
	.st36{fill-rule:evenodd;clip-rule:evenodd;fill:#2F2F60;}
	.st37{fill:#EF7967;}
	.st38{fill-rule:evenodd;clip-rule:evenodd;fill:#F8FCFC;}
	.st39{fill-rule:evenodd;clip-rule:evenodd;fill:#E4ECED;}
	.st40{fill:#3C3C3B;}
	.st41{fill:#4E4D4C;}
	.st42{fill:#95C11F;}
	.st43{opacity:0.2;}
	.st44{fill:#FFFFFF;}
	.st45{fill:#D9D9D9;}
	.st46{fill:#FCEA10;}
</style>
<title>G04_17</title>
<g>
	<g>
		<polygon class="st0" points="95.95,176.53 95.94,181.27 0,125.41 0.01,120.66 		"/>
		<polygon class="st1" points="185.67,123.93 185.67,128.68 96.08,181.35 95.94,181.27 95.95,176.53 96.09,176.61 		"/>
		<polygon class="st2" points="95.95,176.53 0.01,120.66 0.01,120.39 90.35,68.67 185.67,123.93 96.09,176.61 		"/>
	</g>
	<ellipse class="st1" cx="90.18" cy="121.16" rx="65.37" ry="34"/>
</g>
<g>
	<g>
		<path class="st3" d="M73.66,42.54c0,0-1,14.8-0.85,24.04c0.11,8.48,5.36,25.21,5.36,25.21l1.25,0.15l-0.1,6.08
			c0.65,0.92,1.71,1.45,2.84,1.42c0.64,0,1.52-6.93,1.52-6.93h1l-2.6-23.12c0,0,0-14.66,1.44-14.38c0.32,0.06-0.71,0.17,0.45,0
			c4-0.77,9.76-4.29,9.54-8.46c-0.28-5.39-4.54-5.67-4.54-5.67s-7.37-0.62-8.23-0.34C79.88,40.82,73.66,42.54,73.66,42.54z"/>
		<path class="st3" d="M83.1,48.53c0,0,1.44,21.09,3.43,24.78c1.33,2.47,4.68,19.2,4.68,19.2h1l0.46,3c0,0,4.48,2.27,3.63,0
			c-0.16-1.21-0.23-2.42-0.2-3.64l1.36-0.81l-3-22.8l-1-21.99l-6.24-7.66L83.1,48.53z"/>
		<path class="st3" d="M69.08,15.21c0,0,1.7-3.12,4.26-3.12s19.23,3.71,20.4,4.85c1.17,1.14,9.15,16.36,9.15,21.47
			s-1.7,22.68-1.7,22.68s-3.12,0.57-4-0.85c-0.88-1.42-1.7-18.99-1.7-18.99s-4.54-16.44-4.54-15.59
			C90.96,26.51,69.08,15.21,69.08,15.21z"/>
		<path class="st3" d="M73.95,15.15l16.64,4.62l2.35,4.18c0,0,1.42,19.85,0.57,22.4c-0.85,2.55-10.2,3.69-13.61,3.12
			c-3.41-0.57-6.24-7.09-6.24-7.09l-1.74-28.3L73.95,15.15z"/>
		<path class="st3" d="M69.08,15.21c0,0-4.71,8.54-5,14.5c-0.29,5.96,1.07,18.9,1.07,18.9c1.02,0.65,2.3,0.75,3.41,0.28
			c1.7-0.85,1.13-16.72,2-18.71s6.19-14.46,6.19-14.46S74.75,11.81,69.08,15.21z"/>
		<circle class="st4" cx="78.28" cy="6.72" r="6.65"/>
		<path class="st4" d="M76.07,8.76l2.27,6.8l0,0c1.34,1.13,3.23,1.33,4.77,0.5l0.72-0.39l-1.89-7.4L76.07,8.76z"/>
		<path class="st5" d="M81.56,92.41c-0.87-0.14-1.14-0.27-2.13-0.45c-0.09,3.47-0.09,6.09-0.09,6.09c0.22,2.32,1,2.12,2.88,1.52
			c0.62-0.19,0.88-3.06,1.47-7C82.98,92.57,82.27,92.52,81.56,92.41z"/>
		<path class="st5" d="M83.62,102.56c0.09-1.22-0.84-2.43-0.75-3.65c0.05-0.18,0.05-0.37,0-0.55c-0.26,0.21-0.59,0.32-0.92,0.3
			c-0.87,0.05-1.74-0.02-2.6-0.2c-0.06,1.32-2,3.39-2.93,4.35c-0.98,0.88-1.81,1.91-2.47,3.06c-0.13,0.21-0.16,0.46-0.08,0.69
			c0.13,0.26,0.47,0.32,0.77,0.33c1.3-0.01,2.58-0.36,3.72-1C80.18,104.88,81.93,103.77,83.62,102.56z"/>
		<path class="st4" d="M85.74,6.98c0,1.43-0.6,2.58-1.35,2.58s-1.36-1.15-1.36-2.58s0.61-2.58,1.36-2.58S85.74,5.56,85.74,6.98z"/>
		<path class="st6" d="M78.27,0.06c-2.73,0.01-5.18,1.68-6.19,4.22c1.32,0.64,2.78,0.97,4.25,0.95c0.53,0,5.28-0.65,5.08-1.48
			c0.25,1.05,0.64,2.06,1.17,3c0.01-1.06,0.76-1.97,1.79-2.19h0.17C83.63,1.88,81.11,0.07,78.27,0.06z"/>
		<circle class="st4" cx="98.72" cy="61.23" r="2.42"/>
		<circle class="st4" cx="67.1" cy="50.28" r="2.42"/>
		<polygon class="st3" points="79.78,15.39 80.77,17.78 83.99,18.22 85.72,14.96 83.56,12.62 83.08,12.49 83.19,13.11 		"/>
		<polygon class="st7" points="79.37,18.56 80.93,18.09 79.78,15.39 		"/>
		<polygon class="st3" points="79.61,16.73 76.38,16.34 76.38,13.08 77.62,13.52 		"/>
		<circle class="st8" cx="81.6" cy="16.09" r="0.89"/>
		<line class="st9" x1="77.37" y1="22.91" x2="74.35" y2="22.34"/>
		<line class="st10" x1="77.37" y1="22.91" x2="76.37" y2="22.72"/>
		<line class="st11" x1="75.35" y1="22.53" x2="74.35" y2="22.34"/>
		<path class="st12" d="M73.47,39.33l0.28,3.05c0,0,9.75,5.16,15.99,3.36c3.6-1.06,4.08-2.4,4.08-2.67c0-0.64,0.1-3.12,0-3.45
			c-1.69,1.45-3.78,2.35-6,2.59C83.27,42.84,73.47,39.33,73.47,39.33z"/>
		<path class="st12" d="M77.2,41.39l-1.06-0.31c0,0,2.37-18.73,8.22-23.93c0.69-0.61,3.33-2.2,4.23-2c0.79,0.13,1.55,0.36,2.28,0.68
			c-2.21,0.34-4.24,1.44-5.73,3.12C81.47,22.89,77.2,41.39,77.2,41.39z"/>
		<path class="st5" d="M94.45,92.08c-0.67,0-1.52,0.66-2.3,0.62c0.58,3.42,1.07,6,1.07,6c0.6,2.25,1.73,1.2,3.06,0.33
			c0.43-0.27,0.09-3.13-0.2-7.12C95.55,92.02,95,92.08,94.45,92.08z"/>
		<path class="st5" d="M91.96,104.15c-0.51,0.94,1.38,3.16,2.37,3.55c0.46,0.02,0.91-0.09,1.31-0.32c1.09-0.59,2.03-1.4,2.78-2.39
			c0.33-0.59,0.13-1.12,0-1.79c-0.38-1.16-0.84-2.29-1.4-3.38c-0.34-1.12-0.59-2.26-0.76-3.42H92.8
			C92.8,96.41,93.43,101.38,91.96,104.15z"/>
	</g>
	<g>
		<g>
			<path class="st13" d="M121.58,58.91c-1.89,1.11-3.62,1.59-5.45,2.81v2.42c2-1.75,3.55-2.17,5.8-3.6L121.58,58.91z"/>
			<path class="st13" d="M116.31,58.23c-0.2,1.16-0.24,2.35-0.12,3.53c-0.64,0.39-1.25,1-1.91,1.32c0.17-1.5,0.46-2.99,0.85-4.46
				L116.31,58.23z"/>
			<path class="st14" d="M112.19,53.53c0,0.71,0.51,1.36,0.48,2.07c-0.06,1.31-0.63,10.5,0.52,10.39c1.15-0.11,1,1.41,2,2
				c0.83,0.44,1.34,1.33,2.16,1.77c0.87,0.4,1.86,0.37,2.71-0.07c0.07,0.08,0.12,0.17,0.19,0.25c0.77,0.95,2,1.4,3.2,1.18
				c0.9-0.24,1.6-1,2.5-1.23c1.12-0.3,2.26,0.23,3.36,0.59s2.48,0.51,3.25-0.35c0.53-0.76,0.66-1.72,0.37-2.59
				c-0.3-0.86-0.47-1.76-0.5-2.67c0.07-1,0.67-2,0.45-3c-0.29-1.28-1.9-2.18-1.66-3.47c0.13-0.7,0.79-1.21,0.92-1.91
				c0.18-0.9-0.56-1.7-1.3-2.25c-2.12-1.56-1.62-2.56-1.82-4.94c-0.16-1.44-0.63-2.83-1.4-4.06c-0.95-1.51-5.45-4.15-8.54-1.64
				c-1.08,0.98-1.87,2.24-2.27,3.64c-0.74,2.27-0.47,3.36-2.89,4.41C113.12,51.98,112.23,52.59,112.19,53.53z"/>
			<polygon class="st15" points="109.21,83.4 109.53,90.24 109.19,99.74 107.39,98.7 107.41,82.35 			"/>
			<polygon class="st16" points="109.21,83.4 110.98,82.37 110.96,98.71 109.19,99.74 			"/>
			<polygon class="st17" points="123.97,91.96 124.29,98.79 123.95,117.04 122.14,115.99 122.16,90.91 			"/>
			<polygon class="st18" points="123.97,91.96 125.74,90.93 125.72,116.01 123.95,117.04 			"/>
			<polygon class="st17" points="98.06,89.93 98.38,96.77 98.04,115.01 96.23,113.97 96.25,88.89 			"/>
			<polygon class="st18" points="98.06,89.93 99.83,88.9 99.81,113.98 98.04,115.01 			"/>
			<polygon class="st17" points="112.81,98.48 113.13,105.32 112.79,123.57 110.98,122.53 111,97.43 			"/>
			<polygon class="st18" points="112.81,98.48 114.58,97.45 114.56,122.54 112.79,123.57 			"/>
			<polygon class="st19" points="110.99,99.08 109.55,98.25 109.54,97.14 110.99,97.97 			"/>
			<path class="st17" d="M127.5,85.87c0.01-0.17,0.01-0.35,0-0.52l-1.41-0.84c0.01,0.21,0.01,0.41,0,0.62c0,0.03,0,0.06,0,0.09
				c-0.03,0.2-0.07,0.39-0.13,0.58c0,0,0,0,0,0.06c-0.06,0.21-0.14,0.42-0.23,0.63l0,0c-0.09,0.21-0.2,0.42-0.31,0.63l0,0
				c-0.12,0.2-0.24,0.39-0.38,0.58v0.05l-0.39,0.47l-0.09,0.09c-0.11,0.11-0.22,0.21-0.34,0.31l-0.15,0.14
				c-0.16,0.13-0.33,0.24-0.5,0.35l1.43,0.84c0.18-0.1,0.35-0.22,0.51-0.35l0.15-0.14l0.24-0.2c0.03-0.04,0.06-0.08,0.1-0.11
				l0.09-0.1l0.1-0.1l0.21-0.27l0.08-0.1l0,0l0.07-0.09l0.16-0.23c0-0.08,0.09-0.15,0.14-0.23l0,0c0-0.06,0.07-0.12,0.1-0.19
				l0.12-0.22l0.09-0.21l0,0l0,0c0.04-0.08,0.07-0.16,0.1-0.24c0.03-0.08,0.06-0.17,0.09-0.25c0.01-0.04,0.01-0.09,0-0.13
				c0,0,0,0,0-0.05v-0.09c0-0.1,0-0.21,0.07-0.31v-0.18c0,0,0-0.07,0-0.1C127.43,85.99,127.45,85.92,127.5,85.87z"/>
			<polygon class="st17" points="127.53,85.35 126.09,84.51 126.05,69.54 127.49,70.38 			"/>
			<polygon class="st20" points="127.49,70.38 126.05,69.54 127.01,68.98 128.45,69.82 			"/>
			<polygon class="st20" points="123.44,89.13 109.54,97.14 110.99,97.97 124.88,89.96 			"/>
			<path class="st18" d="M128.45,69.82l-1,0.56v14.99c-0.1,1.88-1.1,3.59-2.67,4.62l-13.88,8v1.1l13.88-8
				c2.14-1.39,3.48-3.73,3.62-6.28L128.45,69.82z"/>
			<path class="st17" d="M115.1,79.3c0.01-0.17,0.01-0.35,0-0.52l-1.38-0.84c0.01,0.2,0.01,0.41,0,0.61c0,0,0,0.07,0,0.1
				c0,0.19-0.08,0.39-0.14,0.58c0,0,0,0,0,0.06c-0.07,0.21-0.15,0.42-0.24,0.63l0,0c-0.1,0.21-0.2,0.42-0.32,0.62l0,0
				c-0.11,0.2-0.24,0.39-0.37,0.57l0,0c-0.12,0.17-0.25,0.32-0.39,0.47l-0.09,0.1l-0.33,0.31l-0.16,0.14
				c-0.16,0.13-0.32,0.25-0.5,0.35l1.44,0.83c0.17-0.1,0.34-0.21,0.5-0.34c0.05-0.05,0.1-0.1,0.16-0.14l0.23-0.21l0.1-0.1l0.09-0.1
				l0.1-0.11l0.22-0.26l0.07-0.1v-0.05l0.07-0.09l0.15-0.24l0.14-0.22l0,0l0.11-0.19c0-0.07,0.07-0.15,0.11-0.23
				c0.04-0.08,0.07-0.13,0.1-0.2l0,0l0,0l0.1-0.24l0.09-0.25V80.1l0,0v-0.09c0-0.11,0.05-0.21,0.07-0.31c0-0.06,0-0.12,0-0.18
				c0,0,0-0.07,0-0.1C115.03,79.4,115.09,79.33,115.1,79.3z"/>
			<polygon class="st17" points="115.13,78.78 113.7,77.94 113.65,62.97 115.09,63.79 			"/>
			<polygon class="st20" points="115.09,63.79 113.65,62.97 114.62,62.41 116.06,63.25 			"/>
			<polygon class="st20" points="111.03,82.54 97.15,90.57 98.59,91.4 112.47,83.38 			"/>
			<path class="st18" d="M116.06,63.25l-1,0.55v14.99c-0.1,1.87-1.09,3.58-2.66,4.61l-13.88,8v1.12l13.88-8
				c2.14-1.39,3.49-3.72,3.63-6.28L116.06,63.25z"/>
			<path class="st21" d="M127.04,91.21c0.01,0.06,0.01,0.11,0,0.17l0,0c-0.02,0.06-0.05,0.11-0.09,0.16l0,0
				c-0.04,0.05-0.08,0.11-0.13,0.15c-0.04,0.03-0.08,0.06-0.12,0.08c-0.03,0.03-0.06,0.06-0.1,0.08l-13.47,7.83v2.15l13.46-7.82l0,0
				l0.09-0.06l0.11-0.09l0,0l0.11-0.11l0,0l0,0l0,0c0-0.03,0-0.07,0-0.1l0,0l0,0c0-0.02,0-0.04,0-0.06c0-0.03,0-0.07,0-0.1l0,0l0,0
				L127.04,91.21z"/>
			<path class="st22" d="M112.56,99.92h-0.08c-0.19,0.04-0.39,0.06-0.59,0.07l0,0c-0.21-0.01-0.42-0.03-0.62-0.07l0,0
				c-0.2-0.04-0.38-0.11-0.56-0.21L95.1,90.72c-0.28-0.13-0.47-0.39-0.5-0.7v2.15c0.03,0.31,0.22,0.58,0.5,0.71l15.61,8.99
				c0.08,0.05,0.16,0.09,0.25,0.12l0.21,0.07h0.1l0,0l0,0h0.17h0.17h0.53h0.22h0.1h0.08h0.15c0.13-0.04,0.25-0.1,0.37-0.17v-2.15
				C112.9,99.83,112.74,99.89,112.56,99.92z"/>
			<path class="st23" d="M126.54,90.51c0.39,0.13,0.59,0.55,0.46,0.94c-0.07,0.22-0.24,0.39-0.46,0.46l-13.47,7.83
				c-0.76,0.38-1.65,0.38-2.41,0l-15.61-8.99c-0.39-0.13-0.59-0.55-0.46-0.94c0.07-0.22,0.24-0.39,0.46-0.46l13.46-7.83
				c0.76-0.38,1.66-0.38,2.42,0L126.54,90.51z"/>
			<path class="st21" d="M129.78,72.97v8.39c0.01,0.09,0.01,0.17,0,0.26l0,0c-0.02,0.07-0.04,0.14-0.07,0.21l0,0
				c-0.02,0.04-0.04,0.08-0.07,0.12c-0.05,0.07-0.12,0.13-0.19,0.18l1.86-1.09c0.08-0.04,0.14-0.1,0.19-0.18l0,0
				c0.02-0.02,0.04-0.05,0.05-0.08l0,0v-0.06c0,0,0-0.05,0-0.07c0-0.02,0,0,0-0.06l0,0l0,0l0,0c0-0.02,0-0.04,0-0.06v-0.05
				c0,0,0,0,0-0.06v-0.06l0,0v-8.39L129.78,72.97z"/>
			<path class="st22" d="M128.57,70.88l-15.6-8.99c-0.67-0.38-1.22-0.07-1.22,0.7v8.39c0.04,0.85,0.49,1.62,1.2,2.09l15.61,8.99
				c0.67,0.39,1.21,0.08,1.21-0.69v-8.38C129.73,72.13,129.28,71.35,128.57,70.88z"/>
			<path class="st13" d="M122.29,60.69c3.35,1.93,5.19,4,4.1,4.65s-4.69-0.43-8-2.36c-3.31-1.93-5.18-4-4.09-4.65
				C115.39,57.68,118.94,58.76,122.29,60.69z"/>
			<path class="st24" d="M122.3,53.17c-0.28,1-1.48,3.32-0.64,6.09l-6.17,3.16l0.51-2.58c0.71-1.78,0.97-3.71,0.75-5.62L122.3,53.17
				z"/>
			<path class="st13" d="M121.72,58.53c0.2,0.56-0.12,1.3,0.12,1.74c0.59,1.12,1.89,1.68,3,2.5c2.84,2.13,0.11,7.45-1.75,10.99
				c-0.82,1.5-1.33,3.15-1.5,4.86c-0.17,0.8-0.13,1.63,0.13,2.4c4.73,12.36-10.11,19.93-12.57,11.15c-0.7-2.5-0.31-6.07,2.06-11.45
				c0.82-1.85,0.31-3.23,0.33-4.16c0.02-0.93-0.66-2.24-1.16-4.29c-0.78-1.34-1.1-2.89-0.9-4.43c0.25-1.77,1.52-3.8,2.58-6
				c0.42-1.08,1-2.09,1.72-3c0.49-0.49,1.65-0.4,2.59-0.63c-0.16,1.06-0.14,2.13,0.07,3.18C117.08,60.94,120.22,59.53,121.72,58.53z
				"/>
			<path class="st24" d="M94.14,95.08c-0.85,5.63-0.7,11.25-1.24,17.09l2.3,2.74c2.15-8.66,4.56-13.26,4.9-18.32
				c0.19-3,0.36-4.84,0.55-6.28C101.16,85.26,94.78,90.82,94.14,95.08z"/>
			<path class="st24" d="M99.73,92.07c-0.37,2.66,0.17,4.06-0.13,6c-0.85,5.63-0.7,11.24-1.23,17.09l2.3,2.74
				c2.14-8.66,4.56-13.26,4.89-18.33c0.18-2.67,0.33-4.48,0.5-5.86C107.73,81.15,100.35,86.51,99.73,92.07z"/>
			<path class="st13" d="M123.13,87.51c-0.18,2.39-0.86,5.19-2.77,6.73c-3.37,2.7-9.82,1.86-14.8,5.58c-4.5-2-9.87-4.94-12.12-6.72
				c0.6-1.47,1.1-2.93,2.6-3.82c2.54-1.52,11.99-7.11,14.42-7.36c0.22-0.32,0.41-0.65,0.58-1l-0.07-0.06c1.18-2.67,0-5.89-0.65-8.48
				c-0.81-1.4-1.16-3.02-1-4.64c0.24-1.76,1.38-3.81,2.44-6c0.58-1.17,1.33-2.26,2.22-3.22c0.46-0.3,1.01-0.44,1.56-0.39
				c-0.92,0.88-2.06,4.47-2.18,7.05c2.87-1.13,6.69-3.22,8-4.63c0.32-0.34,0.41,0,0.63-0.23c1.37,1,1.61,1.49,2.79,2.37
				c0.29,0.22,0.53,0.49,0.73,0.79c-0.57-0.66-1.54-0.83-2.3-0.4c-2.24,0.81-2.6,4.3-2.46,7.34c0.09,2.08,0.72,3.55,2.46,3.63
				c-0.85,2-1.52,3.83-1.32,5c0.39,2.39,1.57,4.7,1.27,8.39C123.16,87.51,123.15,87.51,123.13,87.51z"/>
			<path class="st25" d="M101.64,95.15c3.32,1.91,5.13,4,4.06,4.6c-1.07,0.6-4.64-0.42-8-2.34c-3.36-1.92-5.13-4-4.06-4.6
				C94.71,92.21,98.32,93.23,101.64,95.15z"/>
			<circle class="st26" cx="120.47" cy="49.36" r="4.88"/>
			<path class="st4" d="M112.5,50.34c-0.62,3.25,1.51,6.39,4.76,7.02c3.25,0.62,6.39-1.51,7.02-4.76c0.62-3.25-1.51-6.39-4.76-7.02
				c-0.01,0-0.01,0-0.02,0C116.25,44.97,113.12,47.1,112.5,50.34z"/>
			<path class="st14" d="M113.84,49.53c-0.38-0.19-0.63-0.57-0.65-1c1.69-2.85,5.36-3.8,8.21-2.11c2.12,1.25,3.26,3.68,2.87,6.11
				c-0.05,0.26-0.12,0.51-0.21,0.76c-0.27,0-0.53-0.06-0.78-0.17c-0.56-0.26-1.81-1-1.24-1.63c-0.28,0.31-0.39,0.81-0.41,2.2
				C120.11,50.02,115.91,50.79,113.84,49.53z"/>
			<path class="st4" d="M121.72,52.28c-0.19,0.99,0.45,1.95,1.45,2.14c0.99,0.19,1.95-0.45,2.14-1.45s-0.45-1.95-1.45-2.14
				c-0.01,0-0.01,0-0.02,0C122.86,50.65,121.91,51.3,121.72,52.28z"/>
			<path class="st5" d="M100.8,114.25c0.48,1.12,0.78,2.3,0.89,3.51c0,1.3-0.51,1.65-0.51,1.65c-1.09,0.34-2.2,0.61-3.33,0.82
				c-0.72,0-1.93,1.19-3.67,1.31c-1.74,0.12-4,0.65-4.2-0.72c-0.15-0.83,2-1.62,4.51-3.33c1.09-0.77,2.06-1.7,2.88-2.75
				L100.8,114.25z"/>
			<path class="st5" d="M100.11,108.57c0.38,3.53,0.68,6.23,0.68,6.23s0.09,1.13-1.43,1.2c-0.87,0.06-1.68-0.44-2-1.25
				c0,0-0.62-2.55-1.49-6.21L100.11,108.57z"/>
			<path class="st5" d="M105.01,110.81c0.38,3.53,0.77,6.27,0.77,6.27s0,1.09-1.51,1.16c-0.87,0.04-1.64-0.57-1.8-1.43
				c0,0-0.82-2.37-1.68-6H105.01z"/>
			<path class="st5" d="M105.73,116.87c0,0-0.14,1.23-1.23,1.16c-0.81-0.16-1.54-0.59-2.06-1.23c0,0,0.41,1-0.54,4.2
				c-0.53,1.79-1.57,6.76,0.35,7.44c1.37,0.49,3.28-1.11,3.51-2.13c0.09-0.41,0.49-4.89,0.43-5.31
				C106.01,119.56,105.73,116.87,105.73,116.87z"/>
			<path class="st27" d="M121.39,59.17c-1.89,1.11-3.1,1-4.93,2.18l-0.57,3.05c2.09-1.43,4-2.44,6.12-4L121.39,59.17z"/>
			<path class="st27" d="M116.12,58.53c-0.12,0.61,0.19,1.15,0.34,2.86c-0.63,0.39-1.72,1.63-2.37,2c0.19-1.77,0.63-3.5,1.31-5.14
				L116.12,58.53z"/>
			<path class="st13" d="M121.85,58.53c-1.89,1.12-3.62,1.59-5.45,2.81l-0.05,2.43c2-1.75,3.55-2.17,5.8-3.6L121.85,58.53z"/>
			<path class="st13" d="M116.58,57.82c-0.2,1.17-0.24,2.35-0.12,3.53c-0.63,0.39-1.25,1-1.91,1.31c0.18-1.5,0.46-2.99,0.85-4.46
				L116.58,57.82z"/>
			<circle class="st8" cx="117.41" cy="61.86" r="0.68"/>
			
				<ellipse transform="matrix(0.6658 -0.7462 0.7462 0.6658 -6.9948 106.5893)" class="st8" cx="115.48" cy="61.1" rx="0.68" ry="0.52"/>
			<path class="st12" d="M112.01,82.79l-1-0.3c0,0,4.89-15.15,10.57-20.2c0.67-0.6,1.83-1.16,2.53-0.59
				c0.32,0.23,0.62,0.48,0.9,0.76c0,0-1.48,0-4.14,2.79C117.28,69.04,112.01,82.79,112.01,82.79z"/>
			<path class="st12" d="M123.01,83.05c0,0-1.22-0.34-2.25-0.5c-2.65-0.41-10.46-0.59-10.46-0.59l0.88-3.23c0,0,7,1,9.38,1
				c0.55,0.01,1.09-0.04,1.63-0.16L123.01,83.05z"/>
		</g>
		<g>
			<polygon class="st18" points="48.79,84.93 51.08,83.59 51.02,109.47 48.73,110.81 			"/>
			<polygon class="st17" points="48.79,84.93 48.73,110.81 46.49,109.51 46.55,83.63 			"/>
		</g>
		<polygon class="st28" points="140.58,101.95 142.87,100.62 142.81,126.5 140.52,127.83 		"/>
		<polygon class="st29" points="140.58,101.95 140.52,127.83 138.28,126.54 138.34,100.66 		"/>
		<polygon class="st28" points="109.28,117.38 111.58,116.04 111.52,144.42 109.22,145.76 		"/>
		<polygon class="st29" points="109.28,117.38 109.22,145.76 106.99,144.47 107.05,116.09 		"/>
		<g>
			<polygon class="st30" points="111.7,121.23 148.64,100.47 148.62,104.83 112.18,126.01 			"/>
			<path class="st31" d="M148.64,100.5l-36.44,21.18L44.13,82.35l36.43-21.17L148.64,100.5z"/>
			<path class="st32" d="M112.2,121.65v4.36c-22.71-13.09-45.4-26.19-68.09-39.3v-4.36l0,0L112.2,121.65z"/>
		</g>
		<g>
			<path class="st33" d="M60.1,121.33c4.12-0.94,7.28-5.3,12.06-8.71l4.24-2.12c0.28-4.39,0-5.8-2.07-6.5
				c-3.83-1.32-10.38,2.12-15.39,4.57L60.1,121.33z"/>
			<path class="st34" d="M69.75,130.48l-3.07,2.34c0,2.82,0,4.21,1.13,4.94c1.33,0.9,3.57,0.18,4.93-0.44l0.36-1.1
				c1.31-0.18,1,0.21,2.43-0.57c2.36-1.31,5.84-3.34,6.3-5.68c0.12-0.6-0.34-1.69-1-1.58l-6.85,1.19L69.75,130.48z"/>
			<path class="st33" d="M65.3,112.22l1.11,21.56l0,0c-0.03,0.17,0.05,0.34,0.2,0.42c0.72,0.42,3.12-0.28,5.34-1.57
				c0.79-0.43,1.52-0.96,2.18-1.57l0.82-0.56l1.24-23.74L65.3,112.22z"/>
			<path class="st35" d="M77.12,134.71l-3.16,2.22c-0.09,2.82-0.15,4.2,0.91,5c1.29,0.95,3.56,0.33,5-0.24l0.41-1.07
				c1.86-0.18,1.35,0.1,3.24-0.88c2.29-1.18,5.07-2.86,5.57-4.93c0.14-0.59-0.27-1.69-0.88-1.61l-6.73,0.81L77.12,134.71z"/>
			<path class="st33" d="M72.61,111.03c0.14,2,0.25,3.89,0.31,5.84l0.65,21.24l0,0c0.01,0.13,0.09,0.25,0.21,0.3
				c0.72,0.42,3.11-0.28,5.34-1.57c2.23-1.29,3.34-2.55,2.8-3l0.12-23.22C82.16,105.78,72.69,106.78,72.61,111.03z"/>
			<g>
				<polygon class="st18" points="60.97,95.23 63.27,93.89 63.21,124.76 60.91,126.09 				"/>
				<polygon class="st17" points="60.97,95.23 60.91,126.09 58.69,124.8 58.73,93.93 				"/>
			</g>
			<polygon class="st29" points="49.58,118.07 49.91,124.92 49.56,143.17 47.75,142.12 47.77,117.03 			"/>
			<polygon class="st28" points="49.58,118.07 51.36,117.05 51.33,142.14 49.56,143.17 			"/>
			<polygon class="st29" points="64.33,126.63 64.65,133.47 64.31,151.71 62.5,150.67 62.52,125.59 			"/>
			<polygon class="st28" points="64.33,126.63 66.1,125.6 66.08,150.68 64.31,151.71 			"/>
			<g>
				<path class="st28" d="M74.24,120.3l-14.89,8.59c-0.17,0.1-0.35,0.18-0.53,0.24h-0.1c-0.15,0.05-0.31,0.09-0.47,0.11l0,0
					c-0.15,0.02-0.31,0.02-0.46,0l0,0c-0.15-0.03-0.29-0.08-0.42-0.15l0,0l1.55,0.89l0,0l0.15,0.07l0.15,0.06h0.1h0.06h0.18h0.4
					h0.25h0.11h0.1l0.13-0.05c0.14-0.06,0.27-0.12,0.4-0.2l14.8-8.67L74.24,120.3z"/>
				<path class="st28" d="M75.74,121.19l-14.88,8.59c-1.58,0.92-2.87,0.18-2.88-1.64V112.1l-1,0.59v16.06
					c0,2.48,1.76,3.47,3.91,2.23l14.89-8.59L75.74,121.19z"/>
			</g>
			<g>
				<path class="st28" d="M64.58,114.59l-14.89,8.59c-0.17,0.1-0.35,0.18-0.53,0.25h-0.1c-0.15,0.05-0.31,0.08-0.47,0.1l0,0
					c-0.15,0.02-0.31,0.02-0.46,0l0,0c-0.15-0.03-0.29-0.09-0.42-0.16l0,0l1.55,0.9l0,0l0.15,0.07l0.15,0.05h0.1h0.06h0.17h0.41
					l0.25-0.06h0.11h0.1h0.12c0.14-0.06,0.27-0.12,0.4-0.2l14.89-8.59L64.58,114.59z"/>
				<path class="st28" d="M66.12,115.49l-14.89,8.59c-1.58,0.91-2.87,0.18-2.87-1.64l-0.05-16.06l-1,0.6v16.06
					c0,2.47,1.77,3.47,3.92,2.23l14.89-8.59V115.49z"/>
			</g>
			<g>
				<polygon class="st15" points="60.73,111.55 61.06,118.38 60.71,127.89 58.9,126.85 58.93,110.51 				"/>
				<polygon class="st16" points="60.73,111.55 62.51,110.52 62.48,126.86 60.71,127.89 				"/>
			</g>
			<polygon class="st29" points="75.48,120.1 75.81,126.94 75.47,145.19 73.66,144.15 73.69,119.06 			"/>
			<polygon class="st28" points="75.48,120.1 77.26,119.07 77.23,144.16 75.47,145.19 			"/>
			<g>
				<path class="st21" d="M78.57,119.35c0.01,0.06,0.01,0.11,0,0.17l0,0c-0.02,0.06-0.05,0.11-0.08,0.16l0,0
					c-0.04,0.05-0.09,0.1-0.14,0.15l-0.11,0.09l-0.11,0.07l-13.46,7.83v2.16l13.46-7.83l0,0c0.03-0.02,0.06-0.04,0.09-0.07
					l0.12-0.08l0,0l0.11-0.12l0,0l0,0c0,0,0,0,0-0.05c0.01-0.03,0.01-0.07,0-0.1l0,0l0,0c0,0,0,0,0-0.06c0-0.06,0-0.07,0-0.1l0,0
					L78.57,119.35z"/>
				<path class="st22" d="M64.09,128.07h-0.08c-0.19,0.04-0.39,0.07-0.59,0.07l0,0c-0.21,0-0.42-0.02-0.63-0.07l0,0
					c-0.19-0.04-0.38-0.11-0.55-0.21l-15.61-8.99c-0.29-0.12-0.48-0.39-0.5-0.7v2.16c0.03,0.31,0.22,0.57,0.5,0.7l15.61,8.99
					l0.24,0.12l0.21,0.07h0.11h0.07h0.17h0.17h0.34h0.19c0.07,0.01,0.15,0.01,0.22,0h0.09h0.08h0.15c0.13-0.04,0.25-0.09,0.37-0.16
					v-2.16C64.47,127.97,64.29,128.03,64.09,128.07z"/>
				<path class="st23" d="M78.06,118.64c0.39,0.13,0.59,0.55,0.46,0.94c-0.07,0.22-0.24,0.39-0.46,0.46l-13.46,7.83
					c-0.76,0.39-1.65,0.39-2.41,0l-15.61-8.99c-0.39-0.13-0.59-0.55-0.46-0.94c0.07-0.22,0.24-0.39,0.46-0.46l13.46-7.82
					c0.76-0.39,1.65-0.39,2.41,0L78.06,118.64z"/>
			</g>
			<path class="st33" d="M52.43,109.74l-2.67,1.45c-0.95,4.32-0.41,7.4,1.58,9.47c2.87,3,8.82,5.25,14.37,4
				c4.12-0.94,7.28-5.3,12.06-8.71l4.24-2.16c0.29-4.39,0-5.81-2.07-6.5c-3.83-1.32-10.38,2.12-15.39,4.57L52.43,109.74z"/>
			<path class="st24" d="M68.75,75.71c0.41-0.54,1.08-0.69,2.21-1.68c0.76-0.82,1.36-1,1.71-0.87c0.35,0.13,0.49,0.33,0,1.07
				l-1.27,1.58l1.56-0.11l0.88-0.32l1.91-2c0.58-0.67,0.88-0.23,1.53,0.48c0.94,0.87-0.34,2.21-1.49,3.84
				c-1.17,1.28-0.94,1.52-2.63,1.7l-2.63,0.28l-1,1.53l-2.78-1.88c0.4-0.41,0.77-0.85,1.1-1.32C68.33,77.11,68.22,76.43,68.75,75.71
				z"/>
			<path class="st36" d="M61.87,90.29l5.18-12.08c1.29-0.59,3.63,1.26,3.93,2.2c-1.21,5.8-2.79,11.51-4.73,17.1
				c-0.77,1.89-1.68,2-3.59,1.34C59.36,97.7,60.64,93.51,61.87,90.29z"/>
			<path class="st36" d="M62.41,81.06c4.8,2.77,7.42,5.74,5.87,6.65s-6.71-0.61-11.49-3.38c-4.79-2.77-7.42-5.74-5.86-6.65
				C52.49,76.78,57.63,78.3,62.41,81.06z"/>
			<g>
				<path class="st24" d="M54.64,71.52c0.62,5.22,0.71,4.13-0.56,9.38l6.78,3.17c-0.57-7.39,0.23-8.12,2.3-15.16L54.64,71.52z"/>
				<circle class="st4" cx="60.77" cy="71.32" r="7.26"/>
				<path class="st37" d="M65.56,73.44c-0.06-0.83-0.78-1.46-1.61-1.4c-0.24,0.02-0.48,0.09-0.69,0.22
					c-0.58,0.53-0.78,1.35-0.51,2.09c0.27,0.72,0.68,1.38,1.21,1.94c-2.31,1.54-4.79,2.79-7.41,3.73l-3.25-4.71
					c-0.53-0.68-0.94-1.45-1.22-2.27c-0.4-2.35,0.14-4.77,1.51-6.73c1.76-2,4.27-3.19,6.94-3.27c2.13-0.17,4.71,1.3,6.09,3
					C68.43,68.19,66.41,71.09,65.56,73.44z"/>
			</g>
			<path class="st38" d="M54.61,77.99c1.83,1.16,4.08,1.45,6.14,0.79l0.56,1.68c-1.66,2.31-7.33,2.16-7.2-0.67L54.61,77.99z"/>
			<path class="st36" d="M54.07,79.61c-1.25-0.58-1.56-2.11-2.77-2c-0.41,0.1-0.8,0.28-1.15,0.52c-1.43,0.75-2.51,3-2.83,5.5
				c-1.09,8.55,2.77,9.73,2.33,20.22c-0.08,1.95-0.64,7.46-1.15,11.11c0.32,1.52,1.87,2.92,3.48,4l0.67-7.16l0.79,8.11
				c1.12,1.09,2.46,1.93,3.93,2.47c2.85,1.31,10.56,3,10.5-0.35c-0.08-4.75-1-9.59-0.59-15.34c0.57-8.43,2.59-16.42,1.83-18.27
				c-0.66-1.96-1.9-3.67-3.56-4.9c-1.92-1.34-2.51-2-4.35-3.31C57.63,81.93,54.45,80.75,54.07,79.61z"/>
			<path class="st24" d="M78.37,96.51c1.25-0.91,2.3-2.07,3.09-3.4c0.45-0.71,1.07-1.29,1.81-1.7c1-0.6,3.43-0.2,5.49-0.55
				c0.81-0.19,1.61,0.31,1.8,1.12c0.03,0.12,0.04,0.24,0.04,0.36c0.11,1.25-1.4,2-2.47,3c-0.8,0.8-1.72,1.47-2.72,2
				c-0.86,0.45-2,0.72-2.85,1.17l-2.13,1.55l-1.92-3.34l0.06-0.06L78.37,96.51z"/>
			<path class="st36" d="M68.88,101.66L79.58,95c1.45,0.95,2.62,2.27,3.38,3.83c-4.77,4.05-9.77,7.81-14.99,11.26
				c-1.77,1-2.54,0.55-3.66-1.13C62.37,106.02,65.92,103.5,68.88,101.66z"/>
			<path class="st36" d="M67.27,84.99c1.64,1.42,1.76,1.8,2.11,2.81c1.05,3.08,0.57,9.44,0.65,14.7c-0.23,4.33,0.73,6.94-3.53,7.29
				c-2,0.27-2.56-0.47-3-2.44l-2.52-12.73C60.36,87.17,65.05,83.99,67.27,84.99z"/>
			<g>
				<path class="st21" d="M62.21,110.04v8.38c0.01,0.09,0.01,0.18,0,0.27l0,0c-0.01,0.07-0.03,0.14-0.07,0.21l0,0l-0.07,0.11
					c-0.05,0.07-0.11,0.14-0.19,0.18l1.87-1.07c0.07-0.05,0.14-0.12,0.19-0.19l0,0c0-0.03,0-0.05,0-0.08l0,0c0-0.02,0-0.04,0-0.06
					v-0.06c0,0,0,0,0-0.07l0,0l0,0l0,0l0,0v-0.18l0,0v-8.39L62.21,110.04z"/>
				<path class="st23" d="M61.47,108.33L61.47,108.33c0.07,0.08,0.14,0.16,0.2,0.24l0,0c0.07,0.09,0.12,0.18,0.18,0.27l0,0
					c0.05,0.09,0.1,0.18,0.14,0.28l0,0c0,0.1,0.08,0.2,0.11,0.3l0,0c0,0.1,0,0.2,0.07,0.3l0,0c0,0.1,0,0.2,0,0.29l1.87-1.08v-0.06
					c0-0.02,0-0.03,0-0.05v-0.06c0,0,0,0,0-0.06v-0.06l0,0l0,0c0-0.02,0-0.05,0-0.07v-0.07c0,0,0,0,0-0.06l0,0l0,0v-0.06v-0.06
					c0-0.02,0-0.04,0-0.06v-0.06l0,0l0,0v-0.06v-0.06c0.01-0.02,0.01-0.05,0-0.07c0-0.03,0-0.05,0-0.08l0,0l0,0l-0.09-0.14
					l-0.4-0.29l0,0l-0.06-0.07v-0.06v-0.06c0,0,0,0-0.05,0l0,0l0,0l0,0l0,0h-0.06l0,0l0,0l0,0l0,0h-0.06l0,0h-0.05l0,0l-15.6-8.99
					l0,0l0,0h-0.05l0,0h-0.5h-0.08h-0.09l-1.87,1.08c0.06-0.03,0.12-0.05,0.18-0.06l0,0c0.07-0.02,0.14-0.02,0.21,0l0,0
					c0.07-0.01,0.15-0.01,0.22,0l0,0c0.09,0.02,0.17,0.06,0.24,0.11l15.61,8.99l0.24,0.17l0,0L61.47,108.33z"/>
				<path class="st22" d="M61.01,107.95L45.4,98.95c-0.67-0.39-1.21-0.07-1.21,0.69v8.39c0.05,0.85,0.5,1.63,1.21,2.09l15.6,8.99
					c0.67,0.38,1.22,0.07,1.22-0.7v-8.39C62.18,109.18,61.73,108.41,61.01,107.95z"/>
			</g>
			<path class="st29" d="M56.99,128.75v-16.06l-1.54-0.89v16.06c-0.02,0.65,0.14,1.29,0.47,1.85c0.17,0.26,0.4,0.49,0.67,0.65
				l1.54,0.89C57.32,130.68,56.88,129.72,56.99,128.75z"/>
			<polygon class="st23" points="56.94,112.69 55.4,111.8 56.43,111.2 57.98,112.09 			"/>
			<path class="st28" d="M60.89,129.79c-1.58,0.92-2.87,0.18-2.88-1.64V112.1l-1,0.59v16.06c0,2.48,1.76,3.47,3.91,2.23
				L60.89,129.79z"/>
			<path class="st29" d="M47.32,123.05v-16.06l-1.55-0.9l-0.01,16.06c-0.03,0.65,0.14,1.29,0.47,1.85c0.17,0.27,0.4,0.49,0.67,0.65
				l1.54,0.9C47.65,124.97,47.22,124.02,47.32,123.05z"/>
			<polygon class="st23" points="47.28,106.99 45.74,106.09 46.77,105.49 48.31,106.39 			"/>
			<path class="st28" d="M51.23,124.09c-1.58,0.91-2.87,0.18-2.87-1.64l-0.05-16.06l-1,0.6v16.06c0,2.47,1.77,3.47,3.92,2.23V124.09
				z"/>
		</g>
		<g>
			<path class="st24" d="M122.5,64.63c-1.59,3.4,0.27,11.69,0.95,15.71l3,0.62c0-0.2,0.61-0.63,0.62-0.84
				c0.2-4.19,0.74-10.39,0.07-14.13c-0.28-1.55-1.29-2.78-2.44-2.74C123.78,63.33,122.96,63.84,122.5,64.63z"/>
			<polygon class="st39" points="110,69.92 97.9,63.15 103.86,77.16 115.95,83.93 			"/>
			<circle class="st4" cx="112.78" cy="76.95" r="2.83"/>
			<circle class="st4" cx="101.19" cy="69.49" r="2.83"/>
			<path class="st24" d="M125.09,77.73c-3.48-0.78-6.47-1.31-10.18-2.08c-0.06,0.88-0.08,1.77-0.05,2.65
				c3.09,1.19,5.79,2.39,9.13,3.37c1.78,0.52,2.72-0.32,3-1.25C127.26,79.49,126.87,78.14,125.09,77.73z"/>
		</g>
		<path class="st13" d="M122.3,64.52c-0.77,1.64-0.83,5.14-0.53,8l6.12-0.33c-0.03-2.06-0.22-4.12-0.57-6.15
			c-0.29-1.59-1.4-3.15-2.58-3.11C123.72,63.06,122.82,63.64,122.3,64.52z"/>
	</g>
	<g>
		<g>
			<path class="st40" d="M101.99,93.72v-1.49c0.33-0.2,11.85-4.77,12.18-4.58l8.21,3c0,1,0.18,2.89-0.53,3.31l-10.45,6.17
				c-0.34,0.19-0.76,0.19-1.1,0l-7.77-4.53C101.81,95.18,101.99,94.4,101.99,93.72z"/>
			<path class="st41" d="M102.53,91.29l10.56-6.07c0.33-0.19,0.74-0.19,1.08,0l7.67,4.43c0.52,0.3,0.69,0.96,0.39,1.47
				c-0.09,0.16-0.23,0.3-0.39,0.39l-10.45,6.17c-0.34,0.2-0.76,0.2-1.1,0l-7.77-4.52c-0.52-0.31-0.69-0.98-0.38-1.49
				C102.23,91.51,102.37,91.38,102.53,91.29z"/>
			<g>
				<polygon class="st42" points="103.36,92.06 107.78,89.53 115.18,93.88 110.76,96.41 				"/>
				<g class="st43">
					<polygon class="st44" points="103.36,92.06 107.78,89.53 109.16,90.34 109.15,95.46 					"/>
				</g>
			</g>
		</g>
		<g>
			<polygon class="st40" points="111.79,89.51 110.31,88.63 110.31,88.53 111.12,88.17 112.57,88.93 112.57,89.03 			"/>
			<polygon class="st45" points="111.79,89.42 110.31,88.53 111.12,88.07 112.57,88.93 			"/>
		</g>
		<g>
			<polygon class="st40" points="113.88,90.73 112.4,89.85 112.4,89.76 113.2,89.39 114.66,90.15 114.66,90.25 			"/>
			<polygon class="st45" points="113.88,90.64 112.4,89.76 113.2,89.3 114.66,90.15 			"/>
		</g>
		<g>
			<polygon class="st40" points="115.91,91.94 114.43,91.06 114.43,90.96 115.23,90.6 116.69,91.36 116.69,91.46 			"/>
			<polygon class="st45" points="115.91,91.85 114.43,90.96 115.23,90.51 116.69,91.36 			"/>
		</g>
		<g>
			<polygon class="st40" points="113.33,88.69 111.85,87.81 111.85,87.71 112.66,87.35 114.12,88.11 114.12,88.21 			"/>
			<polygon class="st45" points="113.33,88.6 111.85,87.71 112.66,87.26 114.12,88.11 			"/>
		</g>
		<g>
			<polygon class="st40" points="115.42,89.92 113.94,89.03 113.94,88.94 114.74,88.57 116.2,89.34 116.2,89.43 			"/>
			<polygon class="st45" points="115.42,89.82 113.94,88.94 114.74,88.48 116.2,89.34 			"/>
		</g>
		<g>
			<polygon class="st40" points="117.45,91.12 115.97,90.24 115.97,90.15 116.77,89.78 118.23,90.54 118.23,90.64 			"/>
			<polygon class="st45" points="117.45,91.03 115.97,90.15 116.77,89.69 118.23,90.54 			"/>
		</g>
		<polygon class="st42" points="106.62,97.2 107.98,98 108.01,97.2 106.65,96.41 		"/>
		<polygon class="st46" points="108.36,98.2 109.71,99 109.74,98.2 108.38,97.4 		"/>
	</g>
</g>
</svg>
