<svg xmlns="http://www.w3.org/2000/svg" xmlns:xlink="http://www.w3.org/1999/xlink" viewBox="0 0 145.65 198.37"><defs><style>.cls-1,.cls-14,.cls-4,.cls-5,.cls-6,.cls-7,.cls-8,.cls-9{fill:none;}.cls-1,.cls-3{opacity:0.8;}.cls-2{clip-path:url(#clip-path);}.cls-3{fill:#f5ad1f;}.cls-4,.cls-5{stroke:#e20a17;}.cls-4,.cls-5,.cls-6,.cls-7,.cls-8,.cls-9{stroke-linecap:round;stroke-linejoin:round;stroke-width:2px;}.cls-5{stroke-dasharray:4.71 4.71;}.cls-6,.cls-7{stroke:#008d36;}.cls-7{stroke-dasharray:5.34 5.34;}.cls-8,.cls-9{stroke:#1d71b8;}.cls-9{stroke-dasharray:6.12 6.12;}.cls-10{fill:#575756;}.cls-11{fill:#3c3c3b;}.cls-12{fill:#706f6f;}.cls-13{fill:#878787;}.cls-14{stroke:#eaeaea;stroke-miterlimit:10;stroke-width:3.92px;}</style><clipPath id="clip-path" transform="translate(-5.13 -5.13)"><circle class="cls-1" cx="77.95" cy="77.95" r="70.87"/></clipPath></defs><title>G04_13_02</title><g id="Mobile"><g class="cls-2"><circle class="cls-3" cx="72.83" cy="72.83" r="70.87"/><path class="cls-4" d="M46.1,98.21c.21-.77.41-1.54.62-2.3" transform="translate(-5.13 -5.13)"/><path class="cls-5" d="M48,91.38c9.42-31.75,22.83-51.59,37.72-51.59,28,0,50.81,70.3,51.61,158" transform="translate(-5.13 -5.13)"/><path class="cls-4" d="M137.36,200.11c0,.8,0,1.59,0,2.39" transform="translate(-5.13 -5.13)"/><path class="cls-6" d="M41.16,56.78q.69-1.16,1.41-2.28" transform="translate(-5.13 -5.13)"/><path class="cls-7" d="M45.55,50.07C55,36.9,65.86,29.39,77.44,29.39c35.36,0,64.16,70,65.29,157.35" transform="translate(-5.13 -5.13)"/><path class="cls-6" d="M142.76,189.41c0,.9,0,1.79,0,2.69" transform="translate(-5.13 -5.13)"/><path class="cls-8" d="M48.54,26.44c.81-.62,1.62-1.21,2.44-1.77" transform="translate(-5.13 -5.13)"/><path class="cls-9" d="M56.25,21.57a35.21,35.21,0,0,1,15.84-3.89c40.93,0,74.27,76.17,75.64,171.34" transform="translate(-5.13 -5.13)"/><path class="cls-8" d="M147.76,192.08c0,1,0,2,0,3" transform="translate(-5.13 -5.13)"/><path class="cls-10" d="M38.33,29.27l-8.15,7.62a1.23,1.23,0,0,0-.06,1.73L34.25,43A1.23,1.23,0,0,0,36,43.1l8.15-7.61a1.24,1.24,0,0,0,.38-.89,1.25,1.25,0,0,0,.92-.33l.1-.09a1.23,1.23,0,0,0,.06-1.74L41.47,28A1.24,1.24,0,0,0,39.73,28l-.1.1a1.2,1.2,0,0,0-.38.89A1.23,1.23,0,0,0,38.33,29.27Z" transform="translate(-5.13 -5.13)"/><path class="cls-11" d="M28.05,40.8l1.78-1.73,3.9,4.18-1.81,1.69A11.4,11.4,0,0,1,25,47.53,11.31,11.31,0,0,1,28.05,40.8Z" transform="translate(-5.13 -5.13)"/><path class="cls-12" d="M33.5,62.17,28.21,72a1.24,1.24,0,0,0,.5,1.67L34,76.51A1.21,1.21,0,0,0,35.7,76L41,66.2a1.22,1.22,0,0,0,.07-1,1.24,1.24,0,0,0,.77-.6l.07-.12a1.23,1.23,0,0,0-.5-1.67L36.07,60a1.23,1.23,0,0,0-1.66.5l-.07.13a1.22,1.22,0,0,0-.07,1A1.21,1.21,0,0,0,33.5,62.17Z" transform="translate(-5.13 -5.13)"/><path class="cls-11" d="M27.44,76.37l1.14-2.21,5,2.71-1.17,2.19a11.4,11.4,0,0,1-5.74,4.67A11.44,11.44,0,0,1,27.44,76.37Z" transform="translate(-5.13 -5.13)"/><path class="cls-13" d="M40.12,105.07l-2.83,10.79a1.24,1.24,0,0,0,.88,1.5L44,118.89a1.24,1.24,0,0,0,1.5-.88l2.82-10.78a1.23,1.23,0,0,0-.15-1,1.18,1.18,0,0,0,.6-.76l0-.14a1.23,1.23,0,0,0-.88-1.5l-5.85-1.53a1.23,1.23,0,0,0-1.5.87l0,.14a1.23,1.23,0,0,0,.15,1A1.21,1.21,0,0,0,40.12,105.07Z" transform="translate(-5.13 -5.13)"/><path class="cls-11" d="M37.57,120.3l.59-2.41,5.53,1.45-.63,2.4a11.4,11.4,0,0,1-4.48,5.89A11.44,11.44,0,0,1,37.57,120.3Z" transform="translate(-5.13 -5.13)"/></g><circle class="cls-14" cx="72.83" cy="72.83" r="70.87"/></g></svg>