<svg xmlns="http://www.w3.org/2000/svg" xmlns:xlink="http://www.w3.org/1999/xlink" viewBox="0 0 152.69 149.26"><defs><style>.cls-1,.cls-4,.cls-49{fill:none;}.cls-1,.cls-3{opacity:0.8;}.cls-2{clip-path:url(#clip-path);}.cls-3{fill:#f5ad1f;}.cls-10,.cls-11,.cls-12,.cls-13,.cls-14,.cls-15,.cls-16,.cls-18,.cls-20,.cls-22,.cls-24,.cls-25,.cls-26,.cls-27,.cls-28,.cls-29,.cls-30,.cls-33,.cls-36,.cls-37,.cls-40,.cls-43,.cls-44,.cls-47,.cls-48,.cls-5,.cls-6,.cls-7,.cls-8,.cls-9{stroke:#f5ad20;stroke-width:1.19px;}.cls-5{fill:url(#linear-gradient);}.cls-6{fill:url(#linear-gradient-2);}.cls-7{fill:url(#linear-gradient-3);}.cls-8{fill:url(#linear-gradient-4);}.cls-9{fill:url(#linear-gradient-5);}.cls-10{fill:url(#linear-gradient-6);}.cls-11{fill:url(#linear-gradient-7);}.cls-12{fill:url(#linear-gradient-8);}.cls-13{fill:url(#linear-gradient-9);}.cls-14{fill:url(#linear-gradient-10);}.cls-15{fill:url(#linear-gradient-11);}.cls-16{fill:url(#linear-gradient-12);}.cls-17{fill:url(#linear-gradient-13);}.cls-18{fill:url(#linear-gradient-14);}.cls-19{fill:url(#linear-gradient-15);}.cls-20{fill:url(#linear-gradient-16);}.cls-21{fill:url(#linear-gradient-17);}.cls-22{fill:url(#linear-gradient-18);}.cls-23{fill:url(#linear-gradient-19);}.cls-24{fill:url(#linear-gradient-20);}.cls-25{fill:url(#linear-gradient-21);}.cls-26{fill:url(#linear-gradient-22);}.cls-27{fill:url(#linear-gradient-23);}.cls-28{fill:url(#linear-gradient-24);}.cls-29{fill:url(#linear-gradient-25);}.cls-30{fill:url(#linear-gradient-26);}.cls-31{fill:url(#linear-gradient-27);}.cls-32{fill:url(#linear-gradient-28);}.cls-33{fill:url(#linear-gradient-29);}.cls-34{fill:url(#linear-gradient-30);}.cls-35{fill:url(#linear-gradient-31);}.cls-36{fill:url(#linear-gradient-32);}.cls-37{fill:url(#linear-gradient-33);}.cls-38{fill:url(#linear-gradient-34);}.cls-39{fill:url(#linear-gradient-35);}.cls-40{fill:url(#linear-gradient-36);}.cls-41{fill:url(#linear-gradient-37);}.cls-42{fill:url(#linear-gradient-38);}.cls-43{fill:url(#linear-gradient-39);}.cls-44{fill:url(#linear-gradient-40);}.cls-45{fill:url(#linear-gradient-41);}.cls-46{fill:url(#linear-gradient-42);}.cls-47{fill:url(#linear-gradient-43);}.cls-48{fill:url(#linear-gradient-44);}.cls-49{stroke:#eaeaea;stroke-miterlimit:10;stroke-width:3.92px;}</style><clipPath id="clip-path" transform="translate(-0.98 -2.24)"><circle class="cls-1" cx="77.95" cy="77.95" r="70.87"/></clipPath><linearGradient id="linear-gradient" x1="60.29" y1="210.53" x2="210.53" y2="60.29" gradientUnits="userSpaceOnUse"><stop offset="0" stop-color="#fff"/><stop offset="1" stop-color="#ebebeb"/></linearGradient><linearGradient id="linear-gradient-2" x1="-48.47" y1="101.77" x2="101.77" y2="-48.47" xlink:href="#linear-gradient"/><linearGradient id="linear-gradient-3" x1="-50.09" y1="100.15" x2="100.15" y2="-50.09" xlink:href="#linear-gradient"/><linearGradient id="linear-gradient-4" x1="-27.69" y1="122.54" x2="122.54" y2="-27.69" xlink:href="#linear-gradient"/><linearGradient id="linear-gradient-5" x1="-51.06" y1="99.18" x2="99.18" y2="-51.06" xlink:href="#linear-gradient"/><linearGradient id="linear-gradient-6" x1="-47.38" y1="102.86" x2="102.86" y2="-47.38" xlink:href="#linear-gradient"/><linearGradient id="linear-gradient-7" x1="19.23" y1="169.47" x2="169.47" y2="19.23" xlink:href="#linear-gradient"/><linearGradient id="linear-gradient-8" x1="-30.05" y1="120.18" x2="120.18" y2="-30.05" xlink:href="#linear-gradient"/><linearGradient id="linear-gradient-9" x1="67.72" y1="217.95" x2="217.95" y2="67.72" xlink:href="#linear-gradient"/><linearGradient id="linear-gradient-10" x1="-19.06" y1="131.18" x2="131.18" y2="-19.06" xlink:href="#linear-gradient"/><linearGradient id="linear-gradient-11" x1="-37.53" y1="112.71" x2="112.71" y2="-37.53" xlink:href="#linear-gradient"/><linearGradient id="linear-gradient-12" x1="-2636.75" y1="1364.33" x2="-2499.4" y2="1226.98" gradientTransform="matrix(0, -0.35, -0.35, 0, 456.44, -857.17)" xlink:href="#linear-gradient"/><linearGradient id="linear-gradient-13" x1="-50.9" y1="99.34" x2="99.34" y2="-50.9" xlink:href="#linear-gradient"/><linearGradient id="linear-gradient-14" x1="-2784.24" y1="1354.2" x2="-2646.88" y2="1216.85" gradientTransform="matrix(0, -0.35, -0.35, 0, 456.44, -857.17)" xlink:href="#linear-gradient"/><linearGradient id="linear-gradient-15" x1="-23.08" y1="127.16" x2="127.16" y2="-23.08" xlink:href="#linear-gradient"/><linearGradient id="linear-gradient-16" x1="-2719.29" y1="1419.15" x2="-2581.93" y2="1281.8" gradientTransform="matrix(0, -0.35, -0.35, 0, 456.44, -857.17)" xlink:href="#linear-gradient"/><linearGradient id="linear-gradient-17" x1="-46.01" y1="104.23" x2="104.23" y2="-46.01" xlink:href="#linear-gradient"/><linearGradient id="linear-gradient-18" x1="-2761.78" y1="1376.66" x2="-2624.43" y2="1239.3" gradientTransform="matrix(0, -0.35, -0.35, 0, 456.44, -857.17)" xlink:href="#linear-gradient"/><linearGradient id="linear-gradient-19" x1="-31.01" y1="119.23" x2="119.23" y2="-31.01" xlink:href="#linear-gradient"/><linearGradient id="linear-gradient-20" x1="-2581.01" y1="1345.19" x2="-2443.66" y2="1207.84" gradientTransform="matrix(0, -0.35, -0.35, 0, 527.19, -857.17)" xlink:href="#linear-gradient"/><linearGradient id="linear-gradient-21" x1="-2855.72" y1="1482.55" x2="-2718.37" y2="1345.19" gradientTransform="matrix(0, -0.35, -0.35, 0, 527.19, -857.17)" xlink:href="#linear-gradient"/><linearGradient id="linear-gradient-22" x1="-2855.72" y1="1345.19" x2="-2718.37" y2="1207.84" gradientTransform="matrix(0, -0.35, -0.35, 0, 527.19, -857.17)" xlink:href="#linear-gradient"/><linearGradient id="linear-gradient-23" x1="-2581.01" y1="1482.55" x2="-2443.66" y2="1345.19" gradientTransform="matrix(0, -0.35, -0.35, 0, 527.19, -857.17)" xlink:href="#linear-gradient"/><linearGradient id="linear-gradient-24" x1="-2718.37" y1="1482.55" x2="-2581.01" y2="1345.19" gradientTransform="matrix(0, -0.35, -0.35, 0, 527.19, -857.17)" xlink:href="#linear-gradient"/><linearGradient id="linear-gradient-25" x1="-2773.76" y1="1364.68" x2="-2636.4" y2="1227.33" gradientTransform="matrix(0, -0.35, -0.35, 0, 456.44, -857.17)" xlink:href="#linear-gradient"/><linearGradient id="linear-gradient-26" x1="-2752.85" y1="1385.59" x2="-2615.5" y2="1248.23" gradientTransform="matrix(0, -0.35, -0.35, 0, 456.44, -857.17)" xlink:href="#linear-gradient"/><linearGradient id="linear-gradient-27" x1="-2683.88" y1="1517.04" x2="-2546.52" y2="1379.68" gradientTransform="matrix(0, -0.35, -0.35, 0, 527.19, -857.17)" xlink:href="#linear-gradient"/><linearGradient id="linear-gradient-28" x1="-34.16" y1="116.08" x2="116.08" y2="-34.16" xlink:href="#linear-gradient"/><linearGradient id="linear-gradient-29" x1="-2565.13" y1="1498.43" x2="-2427.77" y2="1361.08" gradientTransform="matrix(0, -0.35, -0.35, 0, 527.19, -857.17)" xlink:href="#linear-gradient"/><linearGradient id="linear-gradient-30" x1="-2696.44" y1="1429.76" x2="-2559.09" y2="1292.4" gradientTransform="matrix(0, -0.35, -0.35, 0, 527.19, -927.76)" xlink:href="#linear-gradient"/><linearGradient id="linear-gradient-31" x1="-51.83" y1="98.4" x2="98.4" y2="-51.83" xlink:href="#linear-gradient"/><linearGradient id="linear-gradient-32" x1="-2855.72" y1="1407.83" x2="-2718.37" y2="1270.48" gradientTransform="matrix(0, -0.35, -0.35, 0, 597.79, -857.17)" xlink:href="#linear-gradient"/><linearGradient id="linear-gradient-33" x1="-2885.63" y1="1377.93" x2="-2748.27" y2="1240.57" gradientTransform="matrix(0, -0.35, -0.35, 0, 597.79, -857.17)" xlink:href="#linear-gradient"/><linearGradient id="linear-gradient-34" x1="-2816.95" y1="1309.25" x2="-2679.6" y2="1171.9" gradientTransform="matrix(0, -0.35, -0.35, 0, 597.79, -857.17)" xlink:href="#linear-gradient"/><linearGradient id="linear-gradient-35" x1="61.3" y1="211.54" x2="211.54" y2="61.3" xlink:href="#linear-gradient"/><linearGradient id="linear-gradient-36" x1="-2901.82" y1="1361.73" x2="-2764.47" y2="1224.38" gradientTransform="matrix(0, -0.35, -0.35, 0, 597.79, -857.17)" xlink:href="#linear-gradient"/><linearGradient id="linear-gradient-37" x1="-2833.14" y1="1293.05" x2="-2695.79" y2="1155.7" gradientTransform="matrix(0, -0.35, -0.35, 0, 597.79, -857.17)" xlink:href="#linear-gradient"/><linearGradient id="linear-gradient-38" x1="67.02" y1="217.26" x2="217.26" y2="67.02" xlink:href="#linear-gradient"/><linearGradient id="linear-gradient-39" x1="-2581.01" y1="1407.83" x2="-2443.66" y2="1270.48" gradientTransform="matrix(0, -0.35, -0.35, 0, 597.79, -857.17)" xlink:href="#linear-gradient"/><linearGradient id="linear-gradient-40" x1="-2558.44" y1="1293.05" x2="-2421.08" y2="1155.7" gradientTransform="matrix(0, -0.35, -0.35, 0, 597.79, -857.17)" xlink:href="#linear-gradient"/><linearGradient id="linear-gradient-41" x1="-2627.11" y1="1361.73" x2="-2489.76" y2="1224.38" gradientTransform="matrix(0, -0.35, -0.35, 0, 597.79, -857.17)" xlink:href="#linear-gradient"/><linearGradient id="linear-gradient-42" x1="18.53" y1="168.77" x2="168.77" y2="18.53" xlink:href="#linear-gradient"/><linearGradient id="linear-gradient-43" x1="-2718.37" y1="1407.83" x2="-2581.01" y2="1270.48" gradientTransform="matrix(0, -0.35, -0.35, 0, 597.79, -857.17)" xlink:href="#linear-gradient"/><linearGradient id="linear-gradient-44" x1="-2687.36" y1="1301.49" x2="-2550" y2="1164.13" gradientTransform="matrix(0, -0.35, -0.35, 0, 597.79, -857.17)" xlink:href="#linear-gradient"/></defs><title>G04_13_05</title><g id="Mobile"><g class="cls-2"><circle class="cls-3" cx="76.97" cy="75.72" r="70.87"/><path class="cls-4" d="M1,133a3.93,3.93,0,0,1,1.85.41v-.1A4.32,4.32,0,0,0,1,133Z" transform="translate(-0.98 -2.24)"/><path class="cls-4" d="M2.83,23v-.1A4.19,4.19,0,0,1,1,23.31,4.32,4.32,0,0,0,2.83,23Z" transform="translate(-0.98 -2.24)"/><path class="cls-4" d="M1,36.07a3.93,3.93,0,0,1,1.85.41v-.1A4.32,4.32,0,0,0,1,36.07Z" transform="translate(-0.98 -2.24)"/><path class="cls-4" d="M2.83,120v-.1a3.93,3.93,0,0,1-1.85.41A4.32,4.32,0,0,0,2.83,120Z" transform="translate(-0.98 -2.24)"/><path class="cls-5" d="M152.13,120.28a3.85,3.85,0,0,1-2.48-.7A3.85,3.85,0,0,0,152.13,120.28Z" transform="translate(-0.98 -2.24)"/><path class="cls-6" d="M35.48,20.2a10.57,10.57,0,0,1-7.38,2.61A10.57,10.57,0,0,0,35.48,20.2Z" transform="translate(-0.98 -2.24)"/><path class="cls-7" d="M3.85,53.93s4-12.89,0-16.86a3.12,3.12,0,0,0-1-.69v.1a3.06,3.06,0,0,1,.81.59c4,4,0,16.86,0,16.86s-.39,1.28-.81,3.15v1C3.32,55.68,3.85,53.93,3.85,53.93Z" transform="translate(-0.98 -2.24)"/><path class="cls-8" d="M18.61,85.55c3.48-3.48,3.48-11.28,0-14.75a3.68,3.68,0,0,0-2.87-1,3.56,3.56,0,0,1,2.66,1c3.48,3.47,3.48,11.27,0,14.75a3.6,3.6,0,0,1-2.66,1A3.68,3.68,0,0,0,18.61,85.55Z" transform="translate(-0.98 -2.24)"/><path class="cls-9" d="M35.48,5.45c-3.16,3.15,2.26,9.85.72,13.67C37.74,15.3,32.32,8.6,35.48,5.45Z" transform="translate(-0.98 -2.24)"/><path class="cls-10" d="M35.77,19.86a3.24,3.24,0,0,0,.43-.74A3.24,3.24,0,0,1,35.77,19.86Z" transform="translate(-0.98 -2.24)"/><path class="cls-11" d="M152.13,36.06c.3,0,.62,0,.94.08h0C152.75,36.1,152.43,36.07,152.13,36.06Z" transform="translate(-0.98 -2.24)"/><path class="cls-12" d="M3.85,85.55a3.66,3.66,0,0,1,2.67-1,3.75,3.75,0,0,0-2.88,1,4.93,4.93,0,0,0-.81,1.13v.45A5.12,5.12,0,0,1,3.85,85.55Z" transform="translate(-0.98 -2.24)"/><path class="cls-13" d="M152.13,133a7.72,7.72,0,0,1,.94.07h0A7.72,7.72,0,0,0,152.13,133Z" transform="translate(-0.98 -2.24)"/><path class="cls-14" d="M3.85,119.28c4-4,0-16.86,0-16.86s-.53-1.75-1-4.15v1c.42,1.87.81,3.15.81,3.15s4,12.89,0,16.86a3.06,3.06,0,0,1-.81.59v.1A3.12,3.12,0,0,0,3.85,119.28Z" transform="translate(-0.98 -2.24)"/><path class="cls-15" d="M6.52,71.8a3.66,3.66,0,0,1-2.67-1,5.12,5.12,0,0,1-1-1.58v.44a5,5,0,0,0,.81,1.14A3.75,3.75,0,0,0,6.52,71.8Z" transform="translate(-0.98 -2.24)"/><path class="cls-16" d="M3.64,37.07a3.06,3.06,0,0,0-.81-.59V53.7l.81.23S7.62,41,3.64,37.07Z" transform="translate(-0.98 -2.24)"/><path class="cls-17" d="M3.64,37.07a3.06,3.06,0,0,0-.81-.59V53.7l.81.23S7.62,41,3.64,37.07Z" transform="translate(-0.98 -2.24)"/><path class="cls-18" d="M2.83,99.27v3.38l.81-.23S3.25,101.14,2.83,99.27Z" transform="translate(-0.98 -2.24)"/><path class="cls-19" d="M2.83,99.27v3.38l.81-.23S3.25,101.14,2.83,99.27Z" transform="translate(-0.98 -2.24)"/><path class="cls-20" d="M2.83,53.7v3.38c.42-1.87.81-3.15.81-3.15Z" transform="translate(-0.98 -2.24)"/><path class="cls-21" d="M2.83,53.7v3.38c.42-1.87.81-3.15.81-3.15Z" transform="translate(-0.98 -2.24)"/><path class="cls-22" d="M6.52,84.55c2.79,0,6.39,1.93,9.22,2a3.6,3.6,0,0,0,2.66-1c3.48-3.48,3.48-11.28,0-14.75a3.56,3.56,0,0,0-2.66-1c-2.83.07-6.43,2-9.22,2a3.75,3.75,0,0,1-2.88-1,5,5,0,0,1-.81-1.14v17a4.93,4.93,0,0,1,.81-1.13A3.75,3.75,0,0,1,6.52,84.55Z" transform="translate(-0.98 -2.24)"/><path class="cls-23" d="M6.52,84.55c2.79,0,6.39,1.93,9.22,2a3.6,3.6,0,0,0,2.66-1c3.48-3.48,3.48-11.28,0-14.75a3.56,3.56,0,0,0-2.66-1c-2.83.07-6.43,2-9.22,2a3.75,3.75,0,0,1-2.88-1,5,5,0,0,1-.81-1.14v17a4.93,4.93,0,0,1,.81-1.13A3.75,3.75,0,0,1,6.52,84.55Z" transform="translate(-0.98 -2.24)"/><path class="cls-24" d="M52.34,22.31c3.48,3.48,11.28-3.48,14.76,0s3.48,11.28,0,14.76-11.28-3.48-14.76,0c-4,4,0,16.86,0,16.86s12.89-4,16.87,0c3.47,3.48-3.48,11.28,0,14.76s11.27,3.48,14.75,0-3.48-11.28,0-14.76c4-4,16.87,0,16.87,0s4-12.89,0-16.86c-3.48-3.48-11.28,3.47-14.76,0s-3.48-11.28,0-14.76,11.28,3.48,14.76,0c4-4,0-16.86,0-16.86s-12.89,4-16.87,0a3.64,3.64,0,0,1-1-2.62H70.2a3.59,3.59,0,0,1-1,2.62c-4,4-16.87,0-16.87,0S48.36,18.33,52.34,22.31Z" transform="translate(-0.98 -2.24)"/><path class="cls-25" d="M52.34,134c3.48-3.48,11.28,3.48,14.76,0s3.48-11.28,0-14.76-11.28,3.48-14.76,0c-4-4,0-16.86,0-16.86s-12.89-4-16.86,0c-3.48,3.48,3.47,11.28,0,14.75s-11.28,3.48-14.76,0,3.48-11.27,0-14.75c-4-4-16.87,0-16.87,0s4,12.89,0,16.86a3.12,3.12,0,0,1-1,.69v13.38a3.12,3.12,0,0,1,1,.69c4,4,0,16.86,0,16.86H52.34S48.36,138,52.34,134Z" transform="translate(-0.98 -2.24)"/><path class="cls-26" d="M100.83,134c-3.48-3.48-11.28,3.48-14.76,0s-3.48-11.28,0-14.76,11.28,3.48,14.76,0c4-4,0-16.86,0-16.86s-12.89,4-16.87,0c-3.48-3.48,3.48-11.28,0-14.76s-11.28-3.48-14.75,0,3.47,11.28,0,14.76c-4,4-16.87,0-16.87,0s-4,12.89,0,16.86c3.48,3.48,11.28-3.48,14.76,0s3.48,11.28,0,14.76-11.28-3.48-14.76,0c-4,4,0,16.86,0,16.86h48.49S104.8,138,100.83,134Z" transform="translate(-0.98 -2.24)"/><path class="cls-27" d="M3.85,37.07c4,4,0,16.86,0,16.86s12.89,4,16.87,0c3.48-3.48-3.48-11.28,0-14.75s11.28-3.48,14.76,0-3.48,11.27,0,14.75c4,4,16.86,0,16.86,0s-4-12.89,0-16.86c3.48-3.48,11.28,3.47,14.76,0s3.48-11.28,0-14.76-11.28,3.48-14.76,0c-4-4,0-16.86,0-16.86s-12.89-4-16.86,0c-3.16,3.15,2.26,9.85.72,13.67a3.24,3.24,0,0,1-.43.74,3.07,3.07,0,0,1-.29.34,10.57,10.57,0,0,1-7.38,2.61,11.12,11.12,0,0,1-6.68-2,6.8,6.8,0,0,1-.7-.61c-3.48-3.48,3.48-11.28,0-14.75-4-4-16.87,0-16.87,0s4,12.88,0,16.86a3.12,3.12,0,0,1-1,.69V36.38A3.12,3.12,0,0,1,3.85,37.07Z" transform="translate(-0.98 -2.24)"/><path class="cls-28" d="M52.34,85.55c-3.48-3.48-11.28,3.48-14.76,0s-3.47-11.28,0-14.75,11.28,3.47,14.76,0c4-4,0-16.87,0-16.87s-12.89,4-16.86,0C32,50.45,39,42.65,35.48,39.18s-11.28-3.48-14.76,0,3.48,11.27,0,14.75c-4,4-16.87,0-16.87,0s-.53,1.75-1,4.15V69.22a5.12,5.12,0,0,0,1,1.58,3.66,3.66,0,0,0,2.67,1c2.83-.08,6.43-2,9.22-2a3.68,3.68,0,0,1,2.87,1c3.48,3.47,3.48,11.27,0,14.75a3.68,3.68,0,0,1-2.87,1c-2.79,0-6.39-1.92-9.22-2a3.66,3.66,0,0,0-2.67,1,5.12,5.12,0,0,0-1,1.58V98.27c.49,2.4,1,4.15,1,4.15s12.89-4,16.87,0c3.48,3.48-3.48,11.28,0,14.75s11.28,3.48,14.76,0-3.48-11.27,0-14.75c4-4,16.86,0,16.86,0S56.32,89.53,52.34,85.55Z" transform="translate(-0.98 -2.24)"/><path class="cls-29" d="M15.74,86.55c-2.83-.07-6.43-2-9.22-2C9.35,84.63,13,86.57,15.74,86.55Z" transform="translate(-0.98 -2.24)"/><path class="cls-30" d="M6.52,71.8c2.79,0,6.39-1.93,9.22-2C13,69.78,9.35,71.72,6.52,71.8Z" transform="translate(-0.98 -2.24)"/><path class="cls-31" d="M6.52,71.8c2.79,0,6.39-1.93,9.22-2C13,69.78,9.35,71.72,6.52,71.8Z" transform="translate(-0.98 -2.24)"/><path class="cls-32" d="M6.52,71.8c2.79,0,6.39-1.93,9.22-2C13,69.78,9.35,71.72,6.52,71.8Z" transform="translate(-0.98 -2.24)"/><path class="cls-33" d="M28.1,22.81a11.12,11.12,0,0,1-6.68-2A11.12,11.12,0,0,0,28.1,22.81Z" transform="translate(-0.98 -2.24)"/><path class="cls-34" d="M28.1,22.81a11.12,11.12,0,0,1-6.68-2A11.12,11.12,0,0,0,28.1,22.81Z" transform="translate(-0.98 -2.24)"/><path class="cls-35" d="M28.1,22.81a11.12,11.12,0,0,1-6.68-2A11.12,11.12,0,0,0,28.1,22.81Z" transform="translate(-0.98 -2.24)"/><path class="cls-36" d="M153.07,133.11V120.2a6.17,6.17,0,0,1-.94.08,3.85,3.85,0,0,1-2.48-.7,3.17,3.17,0,0,1-.34-.3c-4-4,0-16.86,0-16.86s-12.89-4-16.86,0c-3.48,3.48,3.48,11.28,0,14.75s-11.28,3.48-14.76,0,3.48-11.27,0-14.75c-4-4-16.86,0-16.86,0s4,12.89,0,16.86c-3.48,3.48-11.28-3.48-14.76,0s-3.48,11.28,0,14.76,11.28-3.48,14.76,0c4,4,0,16.86,0,16.86h48.48s-4-12.89,0-16.86a3.17,3.17,0,0,1,.34-.3,3.85,3.85,0,0,1,2.48-.7A7.72,7.72,0,0,1,153.07,133.11Z" transform="translate(-0.98 -2.24)"/><path class="cls-37" d="M153.07,120.2h0a6.17,6.17,0,0,1-.94.08A6.17,6.17,0,0,0,153.07,120.2Z" transform="translate(-0.98 -2.24)"/><path class="cls-38" d="M153.07,120.2h0a6.17,6.17,0,0,1-.94.08A6.17,6.17,0,0,0,153.07,120.2Z" transform="translate(-0.98 -2.24)"/><path class="cls-39" d="M153.07,120.2h0a6.17,6.17,0,0,1-.94.08A6.17,6.17,0,0,0,153.07,120.2Z" transform="translate(-0.98 -2.24)"/><path class="cls-40" d="M149.65,133.74a3.85,3.85,0,0,1,2.48-.7A3.85,3.85,0,0,0,149.65,133.74Z" transform="translate(-0.98 -2.24)"/><path class="cls-41" d="M149.65,133.74a3.85,3.85,0,0,1,2.48-.7A3.85,3.85,0,0,0,149.65,133.74Z" transform="translate(-0.98 -2.24)"/><path class="cls-42" d="M149.65,133.74a3.85,3.85,0,0,1,2.48-.7A3.85,3.85,0,0,0,149.65,133.74Z" transform="translate(-0.98 -2.24)"/><path class="cls-43" d="M100.83,22.31c-3.48,3.48-11.28-3.48-14.76,0s-3.48,11.28,0,14.76,11.28-3.48,14.76,0c4,4,0,16.86,0,16.86s12.89,4,16.86,0c3.48-3.48-3.48-11.28,0-14.75s11.28-3.48,14.76,0-3.48,11.27,0,14.75c4,4,16.86,0,16.86,0s-4-12.89,0-16.86a3.17,3.17,0,0,1,.34-.3,3.92,3.92,0,0,1,2.48-.71c.3,0,.62,0,.94.08V23.23a4.17,4.17,0,0,1-3.76-.92c-4-4,0-16.86,0-16.86s-12.89-4-16.86,0c-3.48,3.47,3.48,11.27,0,14.75s-11.28,3.48-14.76,0,3.48-11.28,0-14.75c-4-4-16.86,0-16.86,0S104.8,18.33,100.83,22.31Z" transform="translate(-0.98 -2.24)"/><path class="cls-44" d="M149.65,36.77a3.92,3.92,0,0,1,2.48-.71A3.92,3.92,0,0,0,149.65,36.77Z" transform="translate(-0.98 -2.24)"/><path class="cls-45" d="M149.65,36.77a3.92,3.92,0,0,1,2.48-.71A3.92,3.92,0,0,0,149.65,36.77Z" transform="translate(-0.98 -2.24)"/><path class="cls-46" d="M149.65,36.77a3.92,3.92,0,0,1,2.48-.71A3.92,3.92,0,0,0,149.65,36.77Z" transform="translate(-0.98 -2.24)"/><path class="cls-47" d="M132.45,53.93c-3.48-3.48,3.48-11.28,0-14.75s-11.28-3.48-14.76,0,3.48,11.27,0,14.75c-4,4-16.86,0-16.86,0s-4,12.89,0,16.87c3.47,3.47,11.27-3.48,14.75,0s3.48,11.27,0,14.75-11.28-3.48-14.75,0c-4,4,0,16.87,0,16.87s12.89-4,16.86,0c3.48,3.48-3.48,11.28,0,14.75s11.28,3.48,14.76,0-3.48-11.27,0-14.75c4-4,16.86,0,16.86,0s4-12.89,0-16.87c-3.48-3.48-11.28,3.48-14.75,0s-3.48-11.28,0-14.75,11.27,3.47,14.75,0c4-4,0-16.87,0-16.87S136.42,57.91,132.45,53.93Z" transform="translate(-0.98 -2.24)"/><path class="cls-48" d="M149.31,70.8c-3.48,3.47-11.28-3.48-14.75,0s-3.48,11.27,0,14.75,11.27-3.48,14.75,0c4,4,0,16.87,0,16.87s1.56.48,3.76.94V53c-2.2.46-3.76.94-3.76.94S153.29,66.82,149.31,70.8Z" transform="translate(-0.98 -2.24)"/></g><circle class="cls-49" cx="76.97" cy="75.72" r="70.87"/></g></svg>